<svg xmlns="http://www.w3.org/2000/svg" width="109" height="109" viewBox="0 0 109 109">
  <g id="Grupo_160395" data-name="Grupo 160395" transform="translate(-285 -2001.999)">
    <g id="Grupo_160369" data-name="Grupo 160369" transform="translate(24.333 737.999)">
      <path id="Trazado_206028" data-name="Trazado 206028" d="M54.5,0A54.5,54.5,0,1,1,0,54.5,54.5,54.5,0,0,1,54.5,0Z" transform="translate(260.667 1264)" fill="#8c6df2"/>
    </g>
    <g id="naranja-01" transform="translate(303.547 2024.113)">
      <path id="Trazado_206028-2" data-name="Trazado 206028" d="M65.408,30.633v3.456c-.051.415-.095.822-.146,1.237A29.1,29.1,0,0,1,57.87,52.018a28.85,28.85,0,0,1-16.808,9.357c-1.113.2-2.234.313-3.347.458H34.229c-.982-.124-1.972-.211-2.954-.371a28.7,28.7,0,0,1-15.92-8.084A28.785,28.785,0,0,1,6.674,29.425a28.115,28.115,0,0,1,7.189-16.466A28.836,28.836,0,0,1,34.717,2.983,28.057,28.057,0,0,1,50.964,7.072,29,29,0,0,1,64.942,27.315C65.153,28.45,65.255,29.541,65.408,30.633ZM35.968,8.295A24.092,24.092,0,1,0,60.045,32.4,24.092,24.092,0,0,0,35.968,8.295Z" fill="#fff"/>
      <path id="Trazado_206029" data-name="Trazado 206029" d="M37.048,43.959l5.406-5.421,9.554-9.554a2.7,2.7,0,0,1,3.769-.335,2.649,2.649,0,0,1,.48,3.573,6.039,6.039,0,0,1-.6.728L39.267,49.3c-1.5,1.5-2.954,1.5-4.439,0-2.794-2.787-5.6-5.581-8.375-8.382a2.656,2.656,0,0,1,.073-4.089,2.6,2.6,0,0,1,3.289-.044,14.116,14.116,0,0,1,1.15,1.07Z" transform="translate(-5.184 -6.836)" fill="#fff"/>
    </g>
  </g>
</svg>
