<svg xmlns="http://www.w3.org/2000/svg" width="109" height="109" viewBox="0 0 109 109">
  <g id="Grupo_160396" data-name="Grupo 160396" transform="translate(-285 -2113.999)">
    <g id="Grupo_160372" data-name="Grupo 160372" transform="translate(24.333 1024.999)">
      <circle id="Elipse_4744" data-name="Elipse 4744" cx="54.5" cy="54.5" r="54.5" transform="translate(260.667 1089)" fill="#5038a1"/>
    </g>
    <g id="RODO-01" transform="translate(295.711 2128.494)">
      <path id="Trazado_206041" data-name="Trazado 206041" d="M34.028,55.685l2.132,3.152c2.463,3.676,4.944,7.241,7.351,10.889a6,6,0,0,1-3.051,9.189,6.194,6.194,0,0,1-7.186-2.656Q28.2,68.816,23.167,61.345l-.505-.744a9.63,9.63,0,0,1-4.916,1.571A9.934,9.934,0,0,1,7.49,52.018a9.272,9.272,0,0,1,4.218-7.728c1.976-1.378,3.988-2.683,5.955-4.062a3.455,3.455,0,0,0,1.112-1.25q5.725-11.588,11.468-23.2A5.394,5.394,0,0,1,34.736,12.7a11.753,11.753,0,0,1,7.03,1.718A34.221,34.221,0,0,1,51.874,23.1a45.4,45.4,0,0,1,9.088,17.074,17.91,17.91,0,0,1,.524,8.27,7.351,7.351,0,0,1-1.9,3.768,5.67,5.67,0,0,1-3.731,1.7q-10.6.809-21.19,1.682a6.2,6.2,0,0,0-.634.092ZM31.851,21.445a41.14,41.14,0,0,0,.735,4.071A43.07,43.07,0,0,0,47.1,47.451a15.971,15.971,0,0,0,6.671,3.464,3.492,3.492,0,0,0,3.354-1.02,4.834,4.834,0,0,0,1.378-2.7,14.041,14.041,0,0,0-.221-5.67,34.772,34.772,0,0,0-4.595-10.7A42.611,42.611,0,0,0,43.429,19.047a16.835,16.835,0,0,0-6.285-3.253c-2.692-.643-4.595.606-5.063,3.336C31.97,19.791,31.952,20.471,31.851,21.445Zm-2.637,3.06a2.758,2.758,0,0,0-.184.294q-3.768,7.682-7.544,15.355a.919.919,0,0,0,.147,1.011c2.564,3.768,5.128,7.526,7.673,11.312a.983.983,0,0,0,1.038.5c5.137-.423,10.283-.818,15.42-1.222.6-.046,1.195-.119,1.838-.184A46.773,46.773,0,0,1,29.232,24.505ZM26.9,54.187,19.179,42.829c-.193.119-.331.184-.45.266-1.838,1.286-3.8,2.527-5.633,3.869a6.524,6.524,0,0,0-1.663,8.776c2.04,3.262,5.716,4.53,8.794,2.812,2.307-1.268,4.438-2.876,6.69-4.365ZM25.06,58.956c.331.487.625.919.919,1.4q4.953,7.186,9.8,14.354a3.225,3.225,0,0,0,2.5,1.571,2.931,2.931,0,0,0,2.941-1.562,3.051,3.051,0,0,0-.184-3.455q-5-7.351-9.989-14.7a1.213,1.213,0,0,0-1.792-.4c-1.378.919-2.729,1.838-4.144,2.757Z" transform="translate(0 -0.89)" fill="#fff"/>
      <path id="Trazado_206042" data-name="Trazado 206042" d="M69.3,23.514a1.544,1.544,0,0,1-1.682-.992,1.434,1.434,0,0,1,.662-1.746c1.452-.974,2.922-1.93,4.383-2.885l5.569-3.676a1.535,1.535,0,1,1,1.672,2.527L70.168,23.1a5.634,5.634,0,0,1-.864.414Z" transform="translate(-4.868 -0.983)" fill="#fff"/>
      <path id="Trazado_206043" data-name="Trazado 206043" d="M71.937,31.839l6.221,1.112c1.838.34,3.74.68,5.615,1a1.5,1.5,0,1,1-.45,2.95q-5.872-1.029-11.744-2.114a1.516,1.516,0,0,1-1.369-1.672,1.544,1.544,0,0,1,1.728-1.277Z" transform="translate(-5.084 -2.444)" fill="#fff"/>
      <path id="Trazado_206044" data-name="Trazado 206044" d="M63.549,3.27c-.312,2.977-.616,5.964-.919,8.941-.074.726-.147,1.443-.23,2.159a1.461,1.461,0,0,1-1.645,1.388,1.415,1.415,0,0,1-1.277-1.636q.542-5.569,1.13-11.11A1.434,1.434,0,0,1,62.244,1.7a1.479,1.479,0,0,1,1.3,1.571Z" transform="translate(-4.214)" fill="#fff"/>
      <path id="Trazado_206045" data-name="Trazado 206045" d="M44.609,28.4c4.154,0,7.214,2.169,8.325,5.431a8,8,0,0,1-2.61,8.9,2.821,2.821,0,0,1-1.185.561A1.277,1.277,0,0,1,47.7,42.46a1.406,1.406,0,0,1,.312-1.663,7.156,7.156,0,0,1,.579-.469,5.063,5.063,0,0,0-5.679-8.335l-.386.221a1.489,1.489,0,0,1-2.159-.45,1.535,1.535,0,0,1,.662-2.114,7.7,7.7,0,0,1,3.584-1.25Z" transform="translate(-2.65 -2.166)" fill="#fff"/>
    </g>
  </g>
</svg>
