<svg xmlns="http://www.w3.org/2000/svg" width="1050" height="484.934" viewBox="0 0 1050 484.934">
  <g id="Grupo_160424" data-name="Grupo 160424" transform="translate(-251 -1104.066)">
    <path id="Trazado_206770" data-name="Trazado 206770" d="M229.765,20.1a145.727,145.727,0,0,1-13.874,10.07,118.782,118.782,0,0,1-15.667,8.4A96.31,96.31,0,0,1,182.411,44.5a73.043,73.043,0,0,1-9.825,1.51c-.847.057-1.694.13-2.553.15-.429.014-.857.035-1.288.042l-1.3,0c-.871.006-1.709-.022-2.569-.034-.85-.04-1.708-.067-2.557-.132a88.886,88.886,0,0,1-19.6-3.8c-6.177-1.86-11.953-4.105-17.51-6.255-2.777-1.079-5.511-2.129-8.2-3.1-1.347-.493-2.679-.955-4-1.407-.661-.216-1.322-.442-1.978-.647L109,30.19c-5.663-1.777-11.2-3.431-16.648-4.751-2.723-.661-5.419-1.238-8.069-1.7q-1.988-.348-3.936-.609t-3.841-.4a47.436,47.436,0,0,0-13.585.637c-.971.209-1.894.458-2.775.739-.442.138-.869.292-1.291.447l-.62.243c-.186.082-.373.158-.556.245a19.6,19.6,0,0,0-4.024,2.424c-.3.237-.589.476-.865.727l-1.074.936c-.371.323-.7.66-1.058.983s-.653.668-.982.995a24.856,24.856,0,0,0-3.14,4.076,19.58,19.58,0,0,0-1.961,4.188,18.134,18.134,0,0,0-.88,4.345,25.616,25.616,0,0,0,1.073,9.324,42.181,42.181,0,0,0,4.451,9.823,50.115,50.115,0,0,0,3.269,4.775c.591.767,1.2,1.517,1.817,2.223.306.35.618.688.916.995.148.152.3.3.429.42a2.337,2.337,0,0,0,.183.157c.023.014.056.044.066.04l.011,0s.014.011,0-.017l-.065-.114c7.3,9.812,2.967,22.358-9.689,28.022s-28.838,2.3-36.143-7.512L9.8,91.538l-.133-.211-.212-.353-.362-.633c-.228-.408-.433-.791-.632-1.173-.4-.76-.757-1.5-1.108-2.228-.692-1.459-1.319-2.9-1.9-4.342A82.365,82.365,0,0,1,2.515,73.87,67.121,67.121,0,0,1,0,55.587,51.4,51.4,0,0,1,3.7,36.418a50.37,50.37,0,0,1,4.94-9.244,53.372,53.372,0,0,1,6.99-8.335,63.3,63.3,0,0,1,8.567-7c.771-.51,1.534-1.028,2.315-1.518s1.566-.972,2.363-1.428l1.2-.678c.408-.229.77-.436,1.259-.7.92-.5,1.865-.977,2.824-1.433A61.417,61.417,0,0,1,46.415,1.8c.536-.13,1.079-.244,1.62-.361s1.053-.209,1.58-.306c1.055-.188,2.111-.359,3.169-.5C54.9.35,57.011.164,59.1.071A78.479,78.479,0,0,1,71.2.494a92.067,92.067,0,0,1,11.05,1.93,131.723,131.723,0,0,1,19.231,6.263c5.911,2.4,11.42,5.016,16.721,7.607l2.068,1.016c.71.348,1.394.705,2.089,1.058,1.365.713,2.715,1.43,4.021,2.153,2.628,1.444,5.145,2.9,7.628,4.314,4.959,2.833,9.741,5.558,14.67,7.862a68.152,68.152,0,0,0,15.36,5.265c.668.143,1.343.251,2.019.376l1.019.153.511.077c.17.023.336.036.5.055l1.011.106c.339.03.681.048,1.023.074.683.059,1.376.069,2.07.1s1.395.016,2.1.014c.7-.025,1.409-.02,2.116-.07l1.064-.058c.355-.021.71-.056,1.065-.085.711-.054,1.422-.137,2.133-.221s1.421-.193,2.135-.287,1.42-.234,2.132-.352c.7-.145,1.413-.28,2.117-.433s1.409-.31,2.107-.49q2.1-.514,4.16-1.16c.687-.212,1.374-.426,2.051-.661l1.019-.346,1-.372a80.8,80.8,0,0,0,15.106-7.425A67.378,67.378,0,0,0,225,16.967a3.761,3.761,0,0,1,4.383-.49,2.093,2.093,0,0,1,.632,3.4,2.692,2.692,0,0,1-.233.215Z" transform="translate(1203.888 1538.049) rotate(-108)" fill="#fdb74d"/>
    <path id="Trazado_206427" data-name="Trazado 206427" d="M265.467,450.616s-3.868-313.887.65-314.384,411.938-7.851,412.588.5,14.155,317.323,3.218,319.779S265.467,450.616,265.467,450.616Z" transform="translate(314.275 1096.069)" fill="#fedc72" opacity="0.5"/>
    <path id="Trazado_206428" data-name="Trazado 206428" d="M322.573,118.562c.967,1.667,1.551,6.919,3.335,5.886s5.836-2.884,5.435-1.384-2.434,9-1.2,8.887,3.835-2.3,4.618-.584.133,5.886,2.468,5.435,8.52-1.034,8.336.35-1.867,4.252-.684,4.485,7.136-1.15,5.252.934-85.832,65.341-86,64.191,2.518-8.336,1.084-8.186-5.669.567-6.586-1.384,0-5.652-1.884-5.769-5.235,0-5.736-1.267.584-6-1.184-5.886-7.853,1.267-7.253-.35S321.673,116.945,322.573,118.562Z" transform="translate(290.233 1081.122)" fill="#8c6df2" opacity="0.55"/>
    <path id="Trazado_206431" data-name="Trazado 206431" d="M303.227,272.3H607.058v3.868H302.26Z" transform="translate(339.856 1088.564)" fill="#ffb53d"/>
    <path id="Trazado_206432" data-name="Trazado 206432" d="M302.647,331.59H606.478v3.868H301.68Z" transform="translate(339.469 1128.128)" fill="#ffb53d"/>
    <path id="Trazado_206433" data-name="Trazado 206433" d="M303.807,300.39H607.638v3.868H302.84Z" transform="translate(340.243 1107.309)" fill="#ffb53d"/>
    <path id="Trazado_206436" data-name="Trazado 206436" d="M495.473,254.978c-.584-2.067-30.011-1.484-31.462-1.184s.283,29.411.283,29.411,27.944.584,30.011.884S496.057,257.029,495.473,254.978Zm-4.118,25.576c-.884-.283-24.709-1.167-24.709-1.167s-.517-22.225.367-22.525,25.009-1.367,25.593.4S492.239,280.855,491.355,280.555Z" transform="translate(447.405 1076.008)" fill="#8c6df2"/>
    <path id="Trazado_206437" data-name="Trazado 206437" d="M495.353,281.878c-.584-2.067-30.011-1.484-31.462-1.184s.284,29.411.284,29.411,27.944.584,30.011.884S495.954,283.929,495.353,281.878Zm-4.118,25.576c-.884-.283-24.709-1.167-24.709-1.167s-.517-22.225.367-22.525,25.009-1.367,25.593.4S492.119,307.755,491.235,307.455Z" transform="translate(447.325 1093.958)" fill="#8c6df2"/>
    <path id="Trazado_206438" data-name="Trazado 206438" d="M495.353,281.878c-.584-2.067-30.011-1.484-31.462-1.184s.284,29.411.284,29.411,27.944.584,30.011.884S495.954,283.929,495.353,281.878Zm-4.118,25.576c-.884-.283-24.709-1.167-24.709-1.167s-.517-22.225.367-22.525,25.009-1.367,25.593.4S492.119,307.755,491.235,307.455Z" transform="translate(447.325 1093.958)" fill="#8c6df2"/>
    <path id="Trazado_206439" data-name="Trazado 206439" d="M495.232,311.592c-.584-2.051-30.011-1.467-31.462-1.167s.3,29.411.3,29.411,27.927.584,30.011.884S495.832,313.643,495.232,311.592Zm-4.118,25.593c-.867-.3-24.693-1.167-24.693-1.167s-.534-22.242.35-22.525,25.009-1.367,25.593.383-.367,23.592-1.25,23.292Z" transform="translate(447.246 1113.797)" fill="#8c6df2"/>
    <path id="Trazado_206441" data-name="Trazado 206441" d="M467.167,264.715s3.818,12.671,8.236,11.054,20.108-22.508,19.107-23.342a26.9,26.9,0,0,0-2.618-1.817s-16.073,22.508-17.09,21.108-2.2-10-3.618-10.454S466.9,264.115,467.167,264.715Z" transform="translate(449.885 1074.091)" fill="#636363"/>
    <path id="Trazado_206443" data-name="Trazado 206443" d="M466.8,292.755s7.236,14.472,9.037,12.255S493.693,281.4,492.076,281s-4.018-.8-4.018-.8-11.221,21.675-12.021,19.791-4.819-10.254-6.669-9.654A4.885,4.885,0,0,0,466.8,292.755Z" transform="translate(449.652 1093.836)" fill="#636363"/>
    <path id="Trazado_206444" data-name="Trazado 206444" d="M641.38,369.578l-107.14.217.033-11.621L640.63,356.74Z" transform="translate(494.654 1144.91)" fill="#636363"/>
    <path id="Trazado_206445" data-name="Trazado 206445" d="M641.5,333.635l-107.14.2.033-11.621,106.34-1.434Z" transform="translate(494.734 1120.915)" fill="#636363"/>
    <path id="Trazado_206446" data-name="Trazado 206446" d="M641.627,297.668l-107.157.217.05-11.621,106.34-1.434Z" transform="translate(494.807 1096.926)" fill="#636363"/>
    <path id="Trazado_206447" data-name="Trazado 206447" d="M641.74,260.255l-107.14.2.033-11.621,106.34-1.434Z" transform="translate(494.894 1071.949)" fill="#636363"/>
    <path id="Trazado_206448" data-name="Trazado 206448" d="M641.85,224.9l-107.14.217.033-11.621L641.1,212.06Z" transform="translate(494.968 1048.367)" fill="#636363"/>
    <path id="Trazado_206449" data-name="Trazado 206449" d="M641.97,188.465l-107.14.2.033-11.621L641.2,175.61Z" transform="translate(495.048 1024.044)" fill="#636363"/>
    <path id="Trazado_206450" data-name="Trazado 206450" d="M641.38,369.578l-107.14.217.033-11.621L640.63,356.74Z" transform="translate(494.654 1144.91)" fill="#fedc72" opacity="0.53"/>
    <path id="Trazado_206451" data-name="Trazado 206451" d="M627.146,364.291l-87.016.1-.35-1.9,87.5.067Z" transform="translate(498.351 1148.747)" fill="#fedc72" opacity="0.53"/>
    <path id="Trazado_206452" data-name="Trazado 206452" d="M626.82,360l-87.016.1-.333-1.9,87.5.067Z" transform="translate(498.144 1145.885)" fill="#fedc72" opacity="0.53"/>
    <path id="Trazado_206453" data-name="Trazado 206453" d="M626.939,361.69l-87.149.417.2-1.367,87.166-.25Z" transform="translate(498.357 1147.413)" fill="#fedc72" opacity="0.53"/>
    <path id="Trazado_206454" data-name="Trazado 206454" d="M641.5,333.635l-107.14.2.033-11.621,106.34-1.434Z" transform="translate(494.734 1120.915)" fill="#fedc72" opacity="0.53"/>
    <path id="Trazado_206455" data-name="Trazado 206455" d="M627.239,328.241l-87.016.1-.333-1.9,87.5.067Z" transform="translate(498.424 1124.691)" fill="#fedc72" opacity="0.39"/>
    <path id="Trazado_206456" data-name="Trazado 206456" d="M626.936,323.944l-87.016.1-.35-1.884,87.5.05Z" transform="translate(498.211 1121.836)" fill="#fedc72" opacity="0.39"/>
    <path id="Trazado_206457" data-name="Trazado 206457" d="M627.056,325.657l-87.166.417.217-1.367,87.149-.267Z" transform="translate(498.424 1123.357)" fill="#fedc72" opacity="0.39"/>
    <path id="Trazado_206458" data-name="Trazado 206458" d="M641.627,297.668l-107.157.217.05-11.621,106.34-1.434Z" transform="translate(494.807 1096.926)" fill="#fedc72" opacity="0.53"/>
    <path id="Trazado_206459" data-name="Trazado 206459" d="M627.21,292.181l-87.016.1-.333-1.9,87.5.067Z" transform="translate(498.404 1100.629)" fill="#fedc72" opacity="0.53"/>
    <path id="Trazado_206460" data-name="Trazado 206460" d="M626.906,287.9l-87.016.1-.35-1.9,87.5.05Z" transform="translate(498.191 1097.773)" fill="#fedc72" opacity="0.53"/>
    <path id="Trazado_206461" data-name="Trazado 206461" d="M627.026,289.6l-87.166.417.217-1.367,87.149-.267Z" transform="translate(498.404 1099.295)" fill="#fedc72" opacity="0.53"/>
    <path id="Trazado_206462" data-name="Trazado 206462" d="M641.74,260.255l-107.14.2.033-11.621,106.34-1.434Z" transform="translate(494.894 1071.949)" fill="#fedc72" opacity="0.53"/>
    <path id="Trazado_206463" data-name="Trazado 206463" d="M627.636,254.894l-87.016.1-.35-1.884,87.5.05Z" transform="translate(498.678 1075.759)" fill="#fedc72" opacity="0.28"/>
    <path id="Trazado_206464" data-name="Trazado 206464" d="M627.309,250.621l-87.016.1-.333-1.9,87.483.067Z" transform="translate(498.471 1072.896)" fill="#fedc72" opacity="0.28"/>
    <path id="Trazado_206465" data-name="Trazado 206465" d="M627.429,252.31l-87.149.417.2-1.367,87.166-.25Z" transform="translate(498.684 1074.425)" fill="#fedc72" opacity="0.28"/>
    <path id="Trazado_206466" data-name="Trazado 206466" d="M641.85,224.9l-107.14.217.033-11.621L641.1,212.06Z" transform="translate(494.968 1048.367)" fill="#fedc72" opacity="0.53"/>
    <path id="Trazado_206467" data-name="Trazado 206467" d="M627.166,219.5l-87.016.1-.35-1.884,87.5.05Z" transform="translate(498.364 1052.144)" fill="#fedc72" opacity="0.58"/>
    <path id="Trazado_206468" data-name="Trazado 206468" d="M626.84,215.231l-87.016.083-.333-1.884,87.5.067Z" transform="translate(498.157 1049.281)" fill="#fedc72" opacity="0.58"/>
    <path id="Trazado_206469" data-name="Trazado 206469" d="M626.959,216.927l-87.149.417.217-1.367,87.149-.267Z" transform="translate(498.371 1050.803)" fill="#fedc72" opacity="0.58"/>
    <path id="Trazado_206470" data-name="Trazado 206470" d="M641.97,188.465l-107.14.2.033-11.621L641.2,175.61Z" transform="translate(495.048 1024.044)" fill="#fedc72" opacity="0.53"/>
    <path id="Trazado_206471" data-name="Trazado 206471" d="M627.419,183.224l-87.016.1-.333-1.884,87.5.05Z" transform="translate(498.544 1027.935)" fill="#fedc72" opacity="0.29"/>
    <path id="Trazado_206472" data-name="Trazado 206472" d="M627.1,178.951l-87,.1-.35-1.9,87.5.067Z" transform="translate(498.331 1025.071)" fill="#fedc72" opacity="0.29"/>
    <path id="Trazado_206473" data-name="Trazado 206473" d="M627.236,180.64l-87.166.417.217-1.367,87.149-.25Z" transform="translate(498.544 1026.6)" fill="#fedc72" opacity="0.29"/>
    <path id="Trazado_206474" data-name="Trazado 206474" d="M615.765,133.677l-1.984,442.549-21.041.967,2.051-444.283Z" transform="translate(533.691 995.551)" fill="#636363"/>
    <path id="Trazado_206475" data-name="Trazado 206475" d="M615.765,133.677l-1.984,442.549-21.041.967,2.051-444.283Z" transform="translate(533.691 995.551)" fill="#fedc72" opacity="0.29"/>
    <path id="Trazado_206476" data-name="Trazado 206476" d="M601.4,365.072c-4.585-.133-6.769-6.086.367-6.669S607.2,365.256,601.4,365.072Z" transform="translate(536.639 1145.998)" fill="#636363" opacity="0.37"/>
    <path id="Trazado_206477" data-name="Trazado 206477" d="M601.421,329.112c-4.6-.133-6.786-6.086.367-6.669S607.207,329.3,601.421,329.112Z" transform="translate(536.647 1122.003)" fill="#636363" opacity="0.37"/>
    <path id="Trazado_206478" data-name="Trazado 206478" d="M601.132,293.152c-4.6-.133-6.786-6.1.35-6.669S606.918,293.335,601.132,293.152Z" transform="translate(536.453 1098.008)" fill="#636363" opacity="0.37"/>
    <path id="Trazado_206479" data-name="Trazado 206479" d="M601.039,256.732c-4.585-.15-6.786-6.1.367-6.669S606.824,256.9,601.039,256.732Z" transform="translate(536.396 1073.705)" fill="#636363" opacity="0.37"/>
    <path id="Trazado_206480" data-name="Trazado 206480" d="M601.039,256.732c-4.585-.15-6.786-6.1.367-6.669S606.824,256.9,601.039,256.732Z" transform="translate(536.396 1073.705)" fill="#636363" opacity="0.37"/>
    <path id="Trazado_206481" data-name="Trazado 206481" d="M600.962,220.3c-4.6-.133-6.786-6.1.35-6.669S606.748,220.468,600.962,220.3Z" transform="translate(536.339 1049.396)" fill="#636363" opacity="0.37"/>
    <path id="Trazado_206482" data-name="Trazado 206482" d="M600.869,183.872c-4.585-.133-6.786-6.1.367-6.669S606.654,184.055,600.869,183.872Z" transform="translate(536.282 1025.086)" fill="#636363" opacity="0.37"/>
    <path id="Trazado_206483" data-name="Trazado 206483" d="M527.1,133.5,526.43,576.05l21.024,1.05.634-444.3Z" transform="translate(489.442 995.478)" fill="#636363"/>
    <path id="Trazado_206484" data-name="Trazado 206484" d="M527.1,133.5,526.43,576.05l21.024,1.05.634-444.3Z" transform="translate(489.442 995.478)" fill="#fedc72" opacity="0.29"/>
    <path id="Trazado_206485" data-name="Trazado 206485" d="M526.43,400.912l21.024,1.05.017-6.7-21.041.033Z" transform="translate(489.442 1170.614)" fill="#636363" opacity="0.37"/>
    <path id="Trazado_206486" data-name="Trazado 206486" d="M613.815,395.17l-21.041.033-.033,6.986,21.041-.967Z" transform="translate(533.691 1170.555)" fill="#636363" opacity="0.37"/>
    <path id="Trazado_206487" data-name="Trazado 206487" d="M620.846,146.363c-.834.417-29.361.784-29.644.15s.1-27.794.1-27.794,29.911-.767,30.461.267S621.663,145.946,620.846,146.363Z" transform="translate(532.594 985.898)" fill="#8c6df2"/>
    <path id="Trazado_206488" data-name="Trazado 206488" d="M620.045,407.28c-.817.417-29.361.784-29.644.15s0-10.237,0-10.237,30.011-.784,30.461.267S620.879,406.863,620.045,407.28Z" transform="translate(532.045 1171.717)" fill="#8c6df2"/>
    <path id="Trazado_206489" data-name="Trazado 206489" d="M524.83,146.158c.817.417,29.361.9,29.628.267s.1-27.794.1-27.794-29.911-.884-30.461.15S524,145.791,524.83,146.158Z" transform="translate(487.724 985.787)" fill="#8c6df2"/>
    <path id="Trazado_206490" data-name="Trazado 206490" d="M524.054,407.134c.817.417,29.361.884,29.628.267s0-10.237,0-10.237-29.894-.9-30.461.15S523.237,406.667,524.054,407.134Z" transform="translate(487.15 1171.646)" fill="#8c6df2"/>
    <path id="Trazado_206491" data-name="Trazado 206491" d="M534.3,364.952c4.6-.133,6.819-6.086-.317-6.669S528.519,365.1,534.3,364.952Z" transform="translate(491.339 1145.918)" fill="#636363" opacity="0.37"/>
    <path id="Trazado_206492" data-name="Trazado 206492" d="M534.533,328.992c4.585-.133,6.819-6.086-.317-6.669S528.681,329.142,534.533,328.992Z" transform="translate(491.476 1121.923)" fill="#636363" opacity="0.37"/>
    <path id="Trazado_206493" data-name="Trazado 206493" d="M535.01,293.032c4.6-.117,6.836-6.086-.317-6.669S529.274,293.182,535.01,293.032Z" transform="translate(491.817 1097.927)" fill="#636363" opacity="0.37"/>
    <path id="Trazado_206494" data-name="Trazado 206494" d="M535.376,256.6c4.585-.117,6.819-6.069-.317-6.669S529.574,256.736,535.376,256.6Z" transform="translate(492.05 1073.616)" fill="#636363" opacity="0.37"/>
    <path id="Trazado_206495" data-name="Trazado 206495" d="M535.376,256.6c4.585-.117,6.819-6.069-.317-6.669S529.574,256.736,535.376,256.6Z" transform="translate(492.05 1073.616)" fill="#636363" opacity="0.37"/>
    <path id="Trazado_206496" data-name="Trazado 206496" d="M535.694,220.182c4.585-.133,6.819-6.086-.317-6.669S529.909,220.332,535.694,220.182Z" transform="translate(492.266 1049.314)" fill="#636363" opacity="0.37"/>
    <path id="Trazado_206497" data-name="Trazado 206497" d="M535.694,220.182c4.585-.133,6.819-6.086-.317-6.669S529.909,220.332,535.694,220.182Z" transform="translate(492.266 1049.314)" fill="#636363" opacity="0.37"/>
    <path id="Trazado_206498" data-name="Trazado 206498" d="M536.014,183.753c4.6-.117,6.819-6.069-.317-6.669S530.229,183.9,536.014,183.753Z" transform="translate(492.48 1025.004)" fill="#636363" opacity="0.37"/>
    <path id="Trazado_206499" data-name="Trazado 206499" d="M291.58,452.13l42.066-141.136a7.52,7.52,0,0,1,14.489.15l33.813,142.72Z" transform="translate(332.729 1110.761)" fill="#8c6df2"/>
    <path id="Trazado_206500" data-name="Trazado 206500" d="M355.937,345.57l-47.351.333L301.6,369.346l60.623,2.751Z" transform="translate(339.415 1137.457)" fill="#ffb53d"/>
    <path id="Trazado_206501" data-name="Trazado 206501" d="M317.543,316.58l-7.6,25.46,35.363,1.484L339,316.9Z" transform="translate(344.98 1118.112)" fill="#ffb53d"/>
    <path id="Trazado_206502" data-name="Trazado 206502" d="M372.293,373.03l-71.827.333-7.136,23.926,85.2,2Z" transform="translate(333.897 1155.78)" fill="#ffb53d"/>
    <g id="Grupo_159987" data-name="Grupo 159987" transform="translate(627.227 1434.692)" opacity="0.61">
      <path id="Trazado_206503" data-name="Trazado 206503" d="M355.937,345.57l-47.351.333L301.6,369.346l60.623,2.751Z" transform="translate(-287.811 -297.235)" fill="#fdb74d"/>
      <path id="Trazado_206504" data-name="Trazado 206504" d="M317.543,316.58l-7.6,25.46,35.363,1.484L339,316.9Z" transform="translate(-282.246 -316.58)" fill="#fdb74d"/>
      <path id="Trazado_206505" data-name="Trazado 206505" d="M372.293,373.03l-71.827.333-7.136,23.926,85.2,2Z" transform="translate(-293.33 -278.911)" fill="#fdb74d"/>
    </g>
    <path id="Trazado_206506" data-name="Trazado 206506" d="M380.313,390.467l-87.1-.267-1.634,5.452,90.367,1.734Z" transform="translate(332.729 1167.238)" fill="#636363" opacity="0.19"/>
    <path id="Trazado_206507" data-name="Trazado 206507" d="M277.845,392.449c2.8-.3,138.219,0,138.185,2.117s.383,20.941.383,20.941l-139.953-.734S275.06,392.766,277.845,392.449Z" transform="translate(322.405 1168.674)" fill="#8c6df2"/>
    <path id="Trazado_206508" data-name="Trazado 206508" d="M277.845,392.449c2.8-.3,138.219,0,138.185,2.117s.383,20.941.383,20.941l-139.953-.734S275.06,392.766,277.845,392.449Z" transform="translate(322.405 1168.674)" fill="#8c6df2" opacity="0.54"/>
    <path id="Trazado_206509" data-name="Trazado 206509" d="M276.13,397.7c-.133,6.252.333,13.505.333,13.505l139.953.734s-.183-7.936-.3-14.072C375.834,412.505,309.275,403.669,276.13,397.7Z" transform="translate(322.403 1172.243)" fill="#636363" opacity="0.19"/>
    <path id="Trazado_206510" data-name="Trazado 206510" d="M559.357,394.42s-2.668,9.437-.183,10.471,13.188,1.8,13.572.417.7-9.87.7-9.87Z" transform="translate(510.586 1170.054)" fill="#636363"/>
    <path id="Trazado_206511" data-name="Trazado 206511" d="M576.129,395.64s-2.668,9.437-.2,10.471,13.188,1.8,13.572.417.717-9.87.717-9.87Z" transform="translate(521.774 1170.868)" fill="#636363"/>
    <path id="Trazado_206512" data-name="Trazado 206512" d="M592.887,396.85s-2.668,9.437-.183,10.471,13.188,1.817,13.572.417.717-9.854.717-9.854Z" transform="translate(532.96 1171.676)" fill="#636363"/>
    <path id="Trazado_206513" data-name="Trazado 206513" d="M559.357,394.42s-2.668,9.437-.183,10.471,13.188,1.8,13.572.417.7-9.87.7-9.87Z" transform="translate(510.586 1170.054)" fill="#636363" opacity="0.7"/>
    <path id="Trazado_206514" data-name="Trazado 206514" d="M576.129,395.64s-2.668,9.437-.2,10.471,13.188,1.8,13.572.417.717-9.87.717-9.87Z" transform="translate(521.774 1170.868)" fill="#636363" opacity="0.7"/>
    <path id="Trazado_206515" data-name="Trazado 206515" d="M592.887,396.85s-2.668,9.437-.183,10.471,13.188,1.817,13.572.417.717-9.854.717-9.854Z" transform="translate(532.96 1171.676)" fill="#636363" opacity="0.7"/>
    <path id="Trazado_206516" data-name="Trazado 206516" d="M602.79,376.9s35.547,5.735,40.765-39.1h5.285s-2.568,45.934-44.9,46.3Z" transform="translate(540.397 1132.271)" fill="#636363"/>
    <path id="Trazado_206517" data-name="Trazado 206517" d="M550.19,423.967s3.051-73.711,6.119-73.878,94.485.383,96.7,7.386-.767,68.542-4.4,71.327S551.407,428.319,550.19,423.967Z" transform="translate(505.297 1140.457)" fill="#636363"/>
    <path id="Trazado_206518" data-name="Trazado 206518" d="M550.19,423.967s3.051-73.711,6.119-73.878,94.485.383,96.7,7.386-.767,68.542-4.4,71.327S551.407,428.319,550.19,423.967Z" transform="translate(505.297 1140.457)" fill="#636363" opacity="0.37"/>
    <path id="Trazado_206519" data-name="Trazado 206519" d="M648.061,357.473c-1.851-6.019-69.526-7.269-90.551-7.4,18.34,21.942,53.97,27.477,84.515,11.471a40.442,40.442,0,0,0,6.069-3.968A.657.657,0,0,0,648.061,357.473Z" transform="translate(510.182 1140.46)" fill="#636363" opacity="0.26"/>
    <path id="Trazado_206520" data-name="Trazado 206520" d="M551.779,357.148s-7.019-61.873,57.822-65.241c63.941-3.335,75.311,83.748,35.313,104.739S555.731,400.4,551.779,357.148Z" transform="translate(506.209 1101.586)" fill="#8c6df2"/>
    <path id="Trazado_206521" data-name="Trazado 206521" d="M604.7,310.983c36.53,5.535,26.477,58.539-9.87,54.4C557.183,361.1,564.652,304.914,604.7,310.983Z" transform="translate(518.696 1114.072)" fill="#636363" opacity="0.26"/>
    <path id="Trazado_206522" data-name="Trazado 206522" d="M668.138,330.695c-8.553,15.756-25.593,33.346-58.789,30.745-32.529-2.534-49.3-19.607-57.772-34.28a57.447,57.447,0,0,0,.2,6.452c3.951,43.2,53.12,60.473,93.135,39.5C659.685,365.358,667.438,348.568,668.138,330.695Z" transform="translate(506.211 1125.172)" fill="#636363" opacity="0.26"/>
    <path id="Trazado_206523" data-name="Trazado 206523" d="M604.123,310.967c35.213,5.335,25.51,56.438-9.52,52.436C558.322,359.268,565.525,305.115,604.123,310.967Z" transform="translate(519.14 1114.071)" fill="#636363"/>
    <path id="Trazado_206524" data-name="Trazado 206524" d="M604.123,310.967c35.213,5.335,25.51,56.438-9.52,52.436C558.322,359.268,565.525,305.115,604.123,310.967Z" transform="translate(519.14 1114.071)" fill="#fedc72" opacity="0.49"/>
    <path id="Trazado_206525" data-name="Trazado 206525" d="M593.728,317.769c16.306.75,10.554,25.109-2.167,23.742C576.1,339.844,575.321,316.935,593.728,317.769Z" transform="translate(525.15 1118.891)" fill="#636363"/>
    <path id="Trazado_206526" data-name="Trazado 206526" d="M590.158,321.424c7.053.317,4.568,10.871-.934,10.271C582.521,330.978,582.2,321.057,590.158,321.424Z" transform="translate(527.987 1121.338)" fill="#636363"/>
    <path id="Trazado_206527" data-name="Trazado 206527" d="M563.678,398.239c-.667-1.184-.55-29.011,2.884-29.128s58.522,2.334,59.356,6.586-1.434,25.009-1.434,25.009Z" transform="translate(514.084 1153.163)" fill="#636363"/>
    <path id="Trazado_206528" data-name="Trazado 206528" d="M563.678,398.239c-.667-1.184-.55-29.011,2.884-29.128s58.522,2.334,59.356,6.586-1.434,25.009-1.434,25.009Z" transform="translate(514.084 1153.163)" fill="#fedc72" opacity="0.24"/>
    <path id="Trazado_206529" data-name="Trazado 206529" d="M634.52,329.884c11.671,2.234,11.671,19.191-2.684,17.69S622.966,327.667,634.52,329.884Z" transform="translate(554.034 1126.866)" fill="#636363"/>
    <path id="Trazado_206530" data-name="Trazado 206530" d="M634.52,329.884c11.671,2.234,11.671,19.191-2.684,17.69S622.966,327.667,634.52,329.884Z" transform="translate(554.034 1126.866)" fill="#636363" opacity="0.39"/>
    <path id="Trazado_206531" data-name="Trazado 206531" d="M609.69,303.652s15.206-24.759,15.656-23.142-.65,18.524-.65,18.524,23.776-8.587,23.125-7.186-15.939,22.325-15.939,22.325,13.839,5,12.738,4.835-15.956,5.569-15.956,5.569S624.262,308.838,609.69,303.652Z" transform="translate(580.764 1128.073)" fill="#8c6df2"/>
    <path id="Trazado_206532" data-name="Trazado 206532" d="M603.42,308.35l10.4-45.2,11.321,4.7-17.373,43.083Z" transform="translate(576.58 1116.54)" fill="#8c6df2"/>
    <path id="Trazado_206533" data-name="Trazado 206533" d="M622.05,310.892l31.729-4.5-3.068,11.1-26.176-.6Z" transform="translate(589.012 1145.394)" fill="#8c6df2"/>
    <path id="Trazado_206534" data-name="Trazado 206534" d="M411.657,98.235c-46.684-2.518-52.32,37.814-52.32,37.814-5.352,28.994,14.756,66.542,61.773,55.154C470.6,179.232,464.377,101.07,411.657,98.235Zm-1.1,12.688c26.677,1.467,36.68,30.795,27.61,50.836l-57.938-38.831C385.547,116.259,394.75,110.04,410.556,110.923Zm6.669,68.226c-33.579,8.336-47.935-19.191-44.1-40.482a29.586,29.586,0,0,1,1.367-5.269l55.6,39.181a30.729,30.729,0,0,1-12.788,6.569Z" transform="translate(377.381 1044.03)" fill="#8c6df2"/>
    <path id="Trazado_206535" data-name="Trazado 206535" d="M411.657,98.235c-46.684-2.518-52.32,37.814-52.32,37.814-5.352,28.994,14.756,66.542,61.773,55.154C470.6,179.232,464.377,101.07,411.657,98.235Zm-1.1,12.688c26.677,1.467,36.68,30.795,27.61,50.836l-57.938-38.831C385.547,116.259,394.75,110.04,410.556,110.923Zm6.669,68.226c-33.579,8.336-47.935-19.191-44.1-40.482a29.586,29.586,0,0,1,1.367-5.269l55.6,39.181a30.729,30.729,0,0,1-12.788,6.569Z" transform="translate(377.381 1044.03)" fill="#636363" opacity="0.26"/>
    <path id="Trazado_206536" data-name="Trazado 206536" d="M374.665,132.843l-2.267-5.585s8.987,6.3,8.336,4.018c-.2-.667-3.1-13.822,5.385-21.675,0,0-.834,15.823,3.335,15.006s-1.25-31.445,12.4-36.347a42.236,42.236,0,0,0,3.1,17.39c3.735,8.92,12,15.606,12.2,28.544,0,0,3.335-4.452,2.9-15.839,0,0,12.2,19.407,11.588,34.58s-10.1,30.128-35.38,28.544C353.574,178.777,374.665,132.843,374.665,132.843Z" transform="translate(384.695 1037.449)" fill="#8c6df2"/>
    <path id="Trazado_206537" data-name="Trazado 206537" d="M374.5,137.188s2.6,7.5,5.919,7.136c0,0-2.434-15.756,4.352-22.692,0,0-1.567,10,4.168,7.5s5.919-30.395,5.919-30.395,21.225,23.442,16.006,40.332c0,0,5.569-7.319,9.737-13.338,0,0,8.52,38.815-16.873,44.067C383.867,173.918,369.279,159.7,374.5,137.188Z" transform="translate(387.347 1044.442)" fill="#ffb53d"/>
    <path id="Trazado_206538" data-name="Trazado 206538" d="M392.66,114.38s-7.836,13.338-7.136,21.191l-3.651-7.886s-6.953,20.007,4.868,24.009,18.34-10.687,16.873-22.308c0,0-2.251,6.186-5.219,3.751S392.66,114.38,392.66,114.38Z" transform="translate(391.625 1054.879)" fill="#fff"/>
    <path id="Trazado_206539" data-name="Trazado 206539" d="M373.792,113.03l60.756,40.715-7.82,11.738L368.14,123.451Z" transform="translate(383.817 1053.979)" fill="#8c6df2"/>
    <path id="Trazado_206540" data-name="Trazado 206540" d="M373.792,113.03l60.756,40.715-7.82,11.738L368.14,123.451Z" transform="translate(383.817 1053.979)" fill="#636363" opacity="0.26"/>
    <path id="Trazado_206541" data-name="Trazado 206541" d="M178.484,265.7l-9.97-.15-.233,7.87,9.454-.083Z" transform="translate(250.452 1084.061)" fill="#636363"/>
    <path id="Trazado_206542" data-name="Trazado 206542" d="M178.484,265.7l-9.97-.15-.233,7.87,9.454-.083Z" transform="translate(250.452 1084.061)" fill="#636363" opacity="0.44"/>
    <path id="Trazado_206543" data-name="Trazado 206543" d="M208.38,263.64s-38.348,3.435-40.332,4.385-29.828,24.026-29.828,24.026l7.253,7.7s25.393-22.025,27.06-22.342,37.8-4.835,37.8-4.835Z" transform="translate(230.393 1082.785)" fill="#636363"/>
    <path id="Trazado_206544" data-name="Trazado 206544" d="M208.38,263.64s-38.348,3.435-40.332,4.385-29.828,24.026-29.828,24.026l7.253,7.7s25.393-22.025,27.06-22.342,37.8-4.835,37.8-4.835Z" transform="translate(230.393 1082.785)" fill="#fedc72" opacity="0.19"/>
    <path id="Trazado_206545" data-name="Trazado 206545" d="M197.029,287.954l-.8-18.324-15.539.4v17.14Z" transform="translate(258.733 1086.783)" fill="#636363"/>
    <path id="Trazado_206546" data-name="Trazado 206546" d="M211.214,295.85V278.66h-35.38l-.984,17.84Z" transform="translate(254.836 1092.809)" fill="#8c6df2"/>
    <path id="Trazado_206547" data-name="Trazado 206547" d="M211.214,295.85V278.66h-35.38l-.984,17.84Z" transform="translate(254.836 1092.809)" fill="#636363" opacity="0.19"/>
    <path id="Trazado_206548" data-name="Trazado 206548" d="M255.55,313.837c-4.6-11.071-22.125-29.511-49.319-28.594s-45.717,12.955-49.4,37.347-3.235,157.226,0,160.46,96.82,5,100.5,3.218S260.1,324.875,255.55,313.837Z" transform="translate(241.078 1097.18)" fill="#8c6df2"/>
    <path id="Trazado_206549" data-name="Trazado 206549" d="M154.36,376.85c35.93,39.9,80.6,18.224,105.039.65-.183,26.577-.917,46.968-2.218,47.618-3.685,1.851-97.286,0-100.5-3.218C155.544,420.7,154.727,401.609,154.36,376.85Z" transform="translate(241.163 1158.33)" fill="#636363" opacity="0.19"/>
    <path id="Trazado_206550" data-name="Trazado 206550" d="M222.97,400.721,224.3,318.99H169.1l.317,81.314Z" transform="translate(250.999 1119.721)" fill="#ffb53d"/>
    <path id="Trazado_206551" data-name="Trazado 206551" d="M222.97,400.721,224.3,318.99H169.1l.317,81.314Z" transform="translate(250.999 1119.721)" fill="#fedc72" opacity="0.61"/>
    <path id="Trazado_206552" data-name="Trazado 206552" d="M206.279,375.723c3.151-3.335-2.584-28.027-2.718-26.327s-5.285,6.5-6.869,4.785-4.485-27.31-5.919-24.292-4,22.842-5.435,21.541-3.1-10.271-3.635-8.437-8.77,28.127-5.219,32.846S203.145,379.124,206.279,375.723Z" transform="translate(255.335 1126.828)" fill="#8c6df2"/>
    <path id="Trazado_206553" data-name="Trazado 206553" d="M185.093,359.071c.784.484,3.335-16.189,4-17.857s4.585,15.906,5,17.356,3.618-6.669,4.3-7.886,3.6,10.621,3.118,13.939a13.973,13.973,0,0,1-3.335,5.8,59.038,59.038,0,0,1-16.173.4,12.588,12.588,0,0,1-4.2-5c-1.184-3.518,2.334-13.338,2.918-15.506S184.326,358.571,185.093,359.071Z" transform="translate(256.648 1134.477)" fill="#ffb53d"/>
    <path id="Trazado_206554" data-name="Trazado 206554" d="M181.5,365.98a14.622,14.622,0,0,1-.667-7.386c.317-1.034,2.718,5.1,2.718,5.1s2.234-12.2,3.1-14.822,4.068,10.987,4.552,11.471,1.5-3.435,1.5-4.3,2.168,2.234,1.767,5.736a12.189,12.189,0,0,1-1.3,4.051,59.49,59.49,0,0,1-11.671.15Z" transform="translate(258.692 1139.438)" fill="#ffb53d"/>
    <path id="Trazado_206555" data-name="Trazado 206555" d="M216.416,275.911V264.59l-42.666-.25.017,12.021Z" transform="translate(254.102 1083.253)" fill="#ffb53d"/>
    <path id="Trazado_206556" data-name="Trazado 206556" d="M185.275,319.353a30.328,30.328,0,0,0,5.385-25.826c-1.667-6.536-5.752-12.5-14.605-13.338-20.241-1.767-108.891,48.351-108.374,50.936s59.872,72.16,59.872,72.16Z" transform="translate(183.321 1093.798)" fill="#636363"/>
    <path id="Trazado_206557" data-name="Trazado 206557" d="M170.663,282.7l-97.353,50,13.322,15.339,86.049-59.872Z" transform="translate(187.079 1095.504)" fill="#fedc72" opacity="0.08"/>
    <path id="Trazado_206558" data-name="Trazado 206558" d="M148.379,302.555s11.288-10,9.587-13.438-10.837-15.356-15.322-13.972-10,8.52-10,8.52Z" transform="translate(226.67 1090.389)" fill="#636363"/>
    <path id="Trazado_206559" data-name="Trazado 206559" d="M148.379,302.555s11.288-10,9.587-13.438-10.837-15.356-15.322-13.972-10,8.52-10,8.52Z" transform="translate(226.67 1090.389)" fill="#636363" opacity="0.44"/>
    <path id="Trazado_206560" data-name="Trazado 206560" d="M184.583,260.072s54.5-.3,57.171,4.2l-.183,2.968-66.191.867Z" transform="translate(255.19 1080.401)" fill="#636363"/>
    <path id="Trazado_206561" data-name="Trazado 206561" d="M176.648,282.6c-.8.1-4.768-10.937-2.451-13.872s41.916-32.229,64.057-30.295c0,0,3.535,2.784,1.184,5.469s-38.881,17.206-39.315,20.158a106.124,106.124,0,0,0-.317,10.987Z" transform="translate(253.922 1065.906)" fill="#636363"/>
    <path id="Trazado_206562" data-name="Trazado 206562" d="M176.648,282.6c-.8.1-4.768-10.937-2.451-13.872s41.916-32.229,64.057-30.295c0,0,3.535,2.784,1.184,5.469s-38.881,17.206-39.315,20.158a106.124,106.124,0,0,0-.317,10.987Z" transform="translate(253.922 1065.906)" fill="#636363" opacity="0.44"/>
    <path id="Trazado_206563" data-name="Trazado 206563" d="M175.207,259.457l-10.054-.367-.784,22.575,10.12.517Z" transform="translate(247.843 1079.749)" fill="#ffb53d"/>
    <path id="Trazado_206564" data-name="Trazado 206564" d="M195.708,293.636c-9.02,6.869,11.671,26.21,22.358,22.775S204.728,286.684,195.708,293.636Z" transform="translate(267.273 1102.024)" fill="#fedc72" opacity="0.08"/>
    <path id="Trazado_206565" data-name="Trazado 206565" d="M375.25,319.45l2.468,137.185,8.653.417-2.884-136.368Z" transform="translate(388.561 1120.027)" fill="#636363"/>
    <path id="Trazado_206566" data-name="Trazado 206566" d="M507.01,319.45l2.468,137.185,8.653.417-2.884-136.368Z" transform="translate(476.484 1120.027)" fill="#636363"/>
    <path id="Trazado_206567" data-name="Trazado 206567" d="M375.25,319.45l2.468,137.185,8.653.417-2.884-136.368Z" transform="translate(388.561 1120.027)" fill="#636363"/>
    <path id="Trazado_206568" data-name="Trazado 206568" d="M507.01,319.45l2.468,137.185,8.653.417-2.884-136.368Z" transform="translate(476.484 1120.027)" fill="#636363"/>
    <path id="Trazado_206569" data-name="Trazado 206569" d="M515.246,320.684l-8.236-1.234.433,24.543h8.3Z" transform="translate(476.484 1120.027)" fill="#636363" opacity="0.37"/>
    <path id="Trazado_206570" data-name="Trazado 206570" d="M383.486,320.684l-8.236-1.234.45,24.859h8.286Z" transform="translate(388.561 1120.027)" fill="#636363" opacity="0.37"/>
    <path id="Trazado_206571" data-name="Trazado 206571" d="M356.71,352.513l.4-52.353,288.942,1.25L643.984,352.1Z" transform="translate(376.19 1107.155)" fill="#fdb74d"/>
    <path id="Trazado_206572" data-name="Trazado 206572" d="M362.763,415.4S361.53,400.149,364,399.332s53.17.817,53.17.817l-1.234,14.022-8.653.817-.417-9.07-37.1.417.417,9.487Z" transform="translate(380.023 1173.179)" fill="#636363"/>
    <path id="Trazado_206573" data-name="Trazado 206573" d="M494.523,415.4s-1.234-15.256,1.234-16.073,53.17.817,53.17.817l-1.234,14.022-8.653.817-.417-9.07-37.1.417.417,9.487Z" transform="translate(467.946 1173.179)" fill="#636363"/>
    <path id="Trazado_206574" data-name="Trazado 206574" d="M359.96,352.446l12.6-.033,32.462-52.1-13-.05Z" transform="translate(378.358 1107.222)" fill="#636363"/>
    <path id="Trazado_206575" data-name="Trazado 206575" d="M378.45,352.343l12.655-.017L423.45,300.39l-13.038-.05Z" transform="translate(390.697 1107.275)" fill="#636363"/>
    <path id="Trazado_206576" data-name="Trazado 206576" d="M479.22,351.806l12.6-.017L523.57,300.82l-12.988-.05Z" transform="translate(457.94 1107.563)" fill="#636363"/>
    <path id="Trazado_206577" data-name="Trazado 206577" d="M497.71,351.719l12.655-.017,31.645-50.8-13.038-.05Z" transform="translate(470.278 1107.615)" fill="#636363"/>
    <path id="Trazado_206578" data-name="Trazado 206578" d="M645.372,310.54C530.9,365.694,403.464,334.249,356.93,319.393l-.2,26.193L644,345.17Z" transform="translate(376.203 1114.082)" fill="#636363" opacity="0.19"/>
    <path id="Trazado_206579" data-name="Trazado 206579" d="M631.33,380.469s3.335-39.231,45.334-42.082c39.265-2.651,44.283,40.415,44.283,40.415l-3.018-.1s-5.836-40.315-42.616-36.23S635.5,380.036,635.5,380.036Z" transform="translate(559.441 1132.585)" fill="#636363"/>
    <path id="Trazado_206580" data-name="Trazado 206580" d="M631.33,380.469s3.335-39.231,45.334-42.082c39.265-2.651,44.283,40.415,44.283,40.415l-3.018-.1s-5.836-40.315-42.616-36.23S635.5,380.036,635.5,380.036Z" transform="translate(559.441 1132.585)" fill="#636363" opacity="0.63"/>
    <path id="Trazado_206581" data-name="Trazado 206581" d="M647.293,440.819c2.918,0,60.74.967,60.74-1.951s15.806-77.112,13.338-77.612-90.151,1.284-90.151,1.284S644.658,440.819,647.293,440.819Z" transform="translate(559.368 1147.864)" fill="#8c6df2"/>
    <path id="Trazado_206582" data-name="Trazado 206582" d="M703.615,415.884c0-.934,1.667-9.337,3.8-20.274-24.276,17.39-52.2,10.7-69.576,3.335,2.251,10.871,4.2,18.857,5,18.857C645.793,417.835,703.615,418.8,703.615,415.884Z" transform="translate(563.785 1170.848)" fill="#636363" opacity="0.19"/>
    <path id="Trazado_206583" data-name="Trazado 206583" d="M713.189,383.11l-77.929,2.251c.55,2.951,1.117,5.919,1.667,8.837l73.811,1.451C711.522,391.563,712.389,387.328,713.189,383.11Z" transform="translate(562.064 1162.507)" fill="#fedc72" opacity="0.11"/>
    <path id="Trazado_206584" data-name="Trazado 206584" d="M632.46,369c.75,4.235,1.667,9.337,2.668,14.806l80.93,3.535c1.267-6.669,2.418-13.072,3.335-18.34Z" transform="translate(560.195 1153.092)" fill="#fedc72" opacity="0.11"/>
    <path id="Trazado_206585" data-name="Trazado 206585" d="M649.694,347.937,648.41,339.9s18.624-6.919,31.9-.717l-.567,7.82S664.566,341.985,649.694,347.937Z" transform="translate(570.839 1131.472)" fill="#636363"/>
    <path id="Trazado_206586" data-name="Trazado 206586" d="M225.972,351.231s-3.185-6.036-2.734-6.452,9.52-4.118,9.52-4.118l2.368,5.485Z" transform="translate(287.095 1134.181)" fill="#8c6df2"/>
    <path id="Trazado_206587" data-name="Trazado 206587" d="M225.972,351.231s-3.185-6.036-2.734-6.452,9.52-4.118,9.52-4.118l2.368,5.485Z" transform="translate(287.095 1134.181)" fill="#636363" opacity="0.42"/>
    <path id="Trazado_206588" data-name="Trazado 206588" d="M255.461,372.814s-32.679-80.43-32.229-81.947,3.535-3.668,5.519-1.834S261.813,369.3,261.813,369.3Z" transform="translate(287.118 1099.259)" fill="#636363"/>
    <path id="Trazado_206589" data-name="Trazado 206589" d="M241.613,348.163s-3.335-7.3-2.234-8.053,15.539-7.853,16.139-6.369,3.335,6.669,3.335,6.669Z" transform="translate(297.747 1129.428)" fill="#636363"/>
    <path id="Trazado_206590" data-name="Trazado 206590" d="M241.613,348.163s-3.335-7.3-2.234-8.053,15.539-7.853,16.139-6.369,3.335,6.669,3.335,6.669Z" transform="translate(297.747 1129.428)" fill="#636363" opacity="0.81"/>
    <path id="Trazado_206591" data-name="Trazado 206591" d="M219.746,373.484c-.817-1.034-6.119-10.987-4.768-11.538s5.719-2.751,5.819-2.017,4.768,11.554,4.768,11.554S220.563,374.585,219.746,373.484Z" transform="translate(281.467 1146.939)" fill="#636363"/>
    <path id="Trazado_206592" data-name="Trazado 206592" d="M222.158,376.862c-.484-.517-3.335-5.569-2.451-5.936s3.952-1.834,3.968-1.451,2.451,5.936,2.451,5.936S222.642,377.362,222.158,376.862Z" transform="translate(284.656 1153.366)" fill="#636363"/>
    <path id="Trazado_206593" data-name="Trazado 206593" d="M224.718,383.045c-.483-.5-3.335-5.552-2.451-5.936s3.951-1.817,3.968-1.434,2.451,5.936,2.451,5.936S225.269,383.562,224.718,383.045Z" transform="translate(286.365 1157.503)" fill="#636363"/>
    <path id="Trazado_206594" data-name="Trazado 206594" d="M219.746,373.484c-.817-1.034-6.119-10.987-4.768-11.538s5.719-2.751,5.819-2.017,4.768,11.554,4.768,11.554S220.563,374.585,219.746,373.484Z" transform="translate(281.467 1146.939)" fill="#636363" opacity="0.81"/>
    <path id="Trazado_206595" data-name="Trazado 206595" d="M222.158,376.862c-.484-.517-3.335-5.569-2.451-5.936s3.952-1.834,3.968-1.451,2.451,5.936,2.451,5.936S222.642,377.362,222.158,376.862Z" transform="translate(284.656 1153.366)" fill="#636363" opacity="0.81"/>
    <path id="Trazado_206596" data-name="Trazado 206596" d="M224.718,383.045c-.483-.5-3.335-5.552-2.451-5.936s3.951-1.817,3.968-1.434,2.451,5.936,2.451,5.936S225.269,383.562,224.718,383.045Z" transform="translate(286.365 1157.503)" fill="#636363" opacity="0.81"/>
    <path id="Trazado_206597" data-name="Trazado 206597" d="M223.352,350.24c-1.05.167-7.386,9.737-6.669,13.338s15.573,37.8,15.573,37.8l13.705,4.9Z" transform="translate(282.713 1140.573)" fill="#636363"/>
    <path id="Trazado_206598" data-name="Trazado 206598" d="M223.352,350.24c-1.05.167-7.386,9.737-6.669,13.338s15.573,37.8,15.573,37.8l13.705,4.9Z" transform="translate(282.713 1140.573)" fill="#636363" opacity="0.51"/>
    <path id="Trazado_206599" data-name="Trazado 206599" d="M220.052,358.982c.5-3.685,54.47-24.809,56.538-23.725s38.248,91.7,37.481,94.7a15.006,15.006,0,0,1-6.136,8.687c-2.968,1.667-33.262,16.423-38.7,15.973s-10.4-2.634-12.038-4.652S219.535,362.65,220.052,358.982Z" transform="translate(284.995 1130.548)" fill="#636363"/>
    <path id="Trazado_206600" data-name="Trazado 206600" d="M220.052,358.982c.5-3.685,54.47-24.809,56.538-23.725s38.248,91.7,37.481,94.7a15.006,15.006,0,0,1-6.136,8.687c-2.968,1.667-33.262,16.423-38.7,15.973s-10.4-2.634-12.038-4.652S219.535,362.65,220.052,358.982Z" transform="translate(284.995 1130.548)" fill="#636363" opacity="0.3"/>
    <path id="Trazado_206601" data-name="Trazado 206601" d="M243.822,393.336l-2.234-5a2.151,2.151,0,0,1,1.15-2.884l6.669-2.784a2.167,2.167,0,0,1,2.868,1.284l1.817,5.235a2.167,2.167,0,0,1-1.25,2.718l-6.3,2.5a2.167,2.167,0,0,1-2.718-1.067Z" transform="translate(299.24 1162.102)" fill="#8c6df2"/>
    <path id="Trazado_206602" data-name="Trazado 206602" d="M258.06,402.489l-2.234-5a2.168,2.168,0,0,1,1.134-2.884l6.669-2.768a2.168,2.168,0,0,1,2.868,1.284l1.817,5.219a2.151,2.151,0,0,1-1.25,2.718l-6.319,2.5A2.134,2.134,0,0,1,258.06,402.489Z" transform="translate(308.744 1168.221)" fill="#8c6df2"/>
    <path id="Trazado_206603" data-name="Trazado 206603" d="M263.8,392.676l-2.234-5a2.184,2.184,0,0,1,1.134-2.9l6.669-2.768a2.168,2.168,0,0,1,2.868,1.284l1.817,5.219a2.151,2.151,0,0,1-1.25,2.718l-6.3,2.5A2.151,2.151,0,0,1,263.8,392.676Z" transform="translate(312.574 1161.661)" fill="#8c6df2"/>
    <path id="Trazado_206604" data-name="Trazado 206604" d="M252.2,389.93l-2.184-5.085a2.134,2.134,0,0,1,1.134-2.834l7.019-3a2.151,2.151,0,0,1,2.851,1.2l1.951,5a2.151,2.151,0,0,1-1.134,2.751l-6.719,3.084a2.184,2.184,0,0,1-2.918-1.117Z" transform="translate(304.87 1159.655)" fill="#8c6df2"/>
    <path id="Trazado_206605" data-name="Trazado 206605" d="M246.23,400.285l-2.2-5a2.184,2.184,0,0,1,1.134-2.851l7.019-3a2.151,2.151,0,0,1,2.868,1.217l1.951,5a2.184,2.184,0,0,1-1.15,2.751l-6.752,3a2.151,2.151,0,0,1-2.868-1.117Z" transform="translate(300.883 1166.606)" fill="#8c6df2"/>
    <path id="Trazado_206606" data-name="Trazado 206606" d="M260.455,386.187l-2.017-5.219a2.168,2.168,0,0,1,1.217-2.784l7-2.784a2.184,2.184,0,0,1,2.8,1.184l2.184,5.319a2.151,2.151,0,0,1-1.234,2.851l-7.186,2.684a2.134,2.134,0,0,1-2.768-1.25Z" transform="translate(310.518 1157.263)" fill="#8c6df2"/>
    <path id="Trazado_206607" data-name="Trazado 206607" d="M249.568,405.788l-2-5.235a2.168,2.168,0,0,1,1.217-2.784l7-2.768a2.151,2.151,0,0,1,2.784,1.184l2.2,5.319a2.151,2.151,0,0,1-1.234,2.834l-7.186,2.7A2.184,2.184,0,0,1,249.568,405.788Z" transform="translate(303.264 1170.34)" fill="#8c6df2"/>
    <path id="Trazado_206608" data-name="Trazado 206608" d="M254.659,396.289l-2-5.235a2.134,2.134,0,0,1,1.217-2.768l7-2.784a2.167,2.167,0,0,1,2.8,1.184L265.864,392a2.151,2.151,0,0,1-1.234,2.834l-7.186,2.7a2.184,2.184,0,0,1-2.784-1.25Z" transform="translate(306.659 1164)" fill="#8c6df2"/>
    <path id="Trazado_206609" data-name="Trazado 206609" d="M266.213,399.648l-2.017-5.235a2.167,2.167,0,0,1,1.217-2.768l7.019-2.784a2.151,2.151,0,0,1,2.784,1.184l2.2,5.319a2.151,2.151,0,0,1-1.251,2.834l-7.2,2.668A2.167,2.167,0,0,1,266.213,399.648Z" transform="translate(314.363 1166.243)" fill="#8c6df2"/>
    <path id="Trazado_206610" data-name="Trazado 206610" d="M234.55,382.646s44.467-19.124,45.25-18.223,7.169,12.938,6.019,13.622-44.75,19.491-46.084,18.207S234.55,382.646,234.55,382.646Z" transform="translate(294.673 1150.017)" fill="#ffb53d"/>
    <path id="Trazado_206611" data-name="Trazado 206611" d="M220.43,343.252c1.35-1.067,14.372-7.97,15.089-6.219s3.6,7.469,2.634,7.6-15.006,6.236-15.006,6.236S219.079,344.319,220.43,343.252Z" transform="translate(285.068 1131.571)" fill="#8c6df2"/>
    <path id="Trazado_206612" data-name="Trazado 206612" d="M226.986,359.181c2.5-1.3,39.381-17.34,40.782-16.673s15.489,29.278,12.9,30.345-43.166,17.407-43.166,17.407S224.5,360.481,226.986,359.181Z" transform="translate(289.416 1135.4)" fill="#fedc72" opacity="0.08"/>
    <path id="Trazado_206613" data-name="Trazado 206613" d="M232.325,358.582s25.643-11.187,27.077-10.271,2.384,2.484.367,3.468S235.259,362.8,234.042,362.4,230.941,359.616,232.325,358.582Z" transform="translate(292.864 1139.25)" fill="#636363" opacity="0.81"/>
    <path id="Trazado_206614" data-name="Trazado 206614" d="M233.354,363.567s27.26-11.671,28.011-10.954,2.634,1.667.45,3.335-25.593,11.321-26.893,11.1S233.1,364.417,233.354,363.567Z" transform="translate(293.835 1142.135)" fill="#636363" opacity="0.81"/>
    <path id="Trazado_206615" data-name="Trazado 206615" d="M235.761,367.633S263,355.962,263.738,357s2.067,2.451-.15,3.668-25.726,10.621-27.41,10.571S234.627,368.55,235.761,367.633Z" transform="translate(294.913 1145.038)" fill="#636363" opacity="0.81"/>
    <path id="Trazado_207894" data-name="Trazado 207894" d="M30.947,26.281V34H25.463V11.25h9.078a10.574,10.574,0,0,1,4.617.961,7.242,7.242,0,0,1,3.109,2.734,7.468,7.468,0,0,1,1.1,4.023,6.583,6.583,0,0,1-2.383,5.32,9.887,9.887,0,0,1-6.539,1.992Zm0-4.234h3.594a3.389,3.389,0,0,0,2.43-.8A2.961,2.961,0,0,0,37.807,19a3.66,3.66,0,0,0-.859-2.547,3.043,3.043,0,0,0-2.344-.969H30.947ZM51.6,34H46.322V10H51.6Zm12.766,0a5.946,5.946,0,0,1-.5-1.516,4.9,4.9,0,0,1-4.062,1.828,6,6,0,0,1-4.062-1.445,4.6,4.6,0,0,1-1.672-3.633A4.728,4.728,0,0,1,56.1,25.078a10.348,10.348,0,0,1,5.906-1.406h1.625v-.9q0-2.339-2.016-2.339a1.648,1.648,0,0,0-1.875,1.853H54.479a4.72,4.72,0,0,1,2.086-3.98,8.766,8.766,0,0,1,5.32-1.529,7.686,7.686,0,0,1,5.109,1.578,5.487,5.487,0,0,1,1.922,4.328v7.484a7.665,7.665,0,0,0,.719,3.563V34Zm-3.3-3.437a2.937,2.937,0,0,0,1.633-.422,2.644,2.644,0,0,0,.93-.953v-2.7H62.1q-2.75,0-2.75,2.469a1.507,1.507,0,0,0,.484,1.164A1.753,1.753,0,0,0,61.072,30.563ZM76.666,17.094l.172,1.984a5.733,5.733,0,0,1,4.828-2.3,4.823,4.823,0,0,1,3.945,1.578,7.513,7.513,0,0,1,1.352,4.75V34H81.682V23.328a2.853,2.853,0,0,0-.516-1.883,2.385,2.385,0,0,0-1.875-.6,2.511,2.511,0,0,0-2.3,1.219V34H71.729V17.094Zm20.516,8.328a10.327,10.327,0,0,1,1.734-6.328,5.709,5.709,0,0,1,4.844-2.312,4.855,4.855,0,0,1,3.813,1.781V10h5.281V34h-4.734l-.266-1.812a4.986,4.986,0,0,1-4.125,2.125A5.7,5.7,0,0,1,98.947,32,10.655,10.655,0,0,1,97.182,25.422Zm5.266.328q0,4.5,2.625,4.5a2.592,2.592,0,0,0,2.5-1.469V22.344a2.522,2.522,0,0,0-2.469-1.5q-2.437,0-2.641,3.938Zm21.578,8.563a8.691,8.691,0,0,1-6.3-2.32,8.013,8.013,0,0,1-2.406-6.039v-.437a10.383,10.383,0,0,1,.961-4.578,7.031,7.031,0,0,1,2.8-3.07,8.467,8.467,0,0,1,4.375-1.086,7.318,7.318,0,0,1,5.625,2.211,8.688,8.688,0,0,1,2.063,6.164V27.2H120.682a3.8,3.8,0,0,0,1.234,2.234,3.673,3.673,0,0,0,2.469.813,4.732,4.732,0,0,0,3.906-1.75l2.406,2.844a6.726,6.726,0,0,1-2.789,2.164A9.425,9.425,0,0,1,124.025,34.313Zm-.594-13.469q-2.312,0-2.75,3.063h5.313V23.5a2.608,2.608,0,0,0-.641-1.961A2.549,2.549,0,0,0,123.432,20.844Zm25.984,13.469a8.691,8.691,0,0,1-6.3-2.32,8.013,8.013,0,0,1-2.406-6.039v-.437a10.383,10.383,0,0,1,.961-4.578,7.031,7.031,0,0,1,2.8-3.07,8.467,8.467,0,0,1,4.375-1.086,7.318,7.318,0,0,1,5.625,2.211,8.688,8.688,0,0,1,2.063,6.164V27.2H146.072a3.8,3.8,0,0,0,1.234,2.234,3.673,3.673,0,0,0,2.469.813,4.732,4.732,0,0,0,3.906-1.75l2.406,2.844a6.726,6.726,0,0,1-2.789,2.164A9.425,9.425,0,0,1,149.416,34.313Zm-.594-13.469q-2.313,0-2.75,3.063h5.313V23.5a2.608,2.608,0,0,0-.641-1.961A2.549,2.549,0,0,0,148.822,20.844Zm14.813-3.75.172,1.984a5.813,5.813,0,0,1,4.828-2.3,4.279,4.279,0,0,1,4.328,2.547,5.626,5.626,0,0,1,4.969-2.547q5.141,0,5.281,6.219V34h-5.281V23.328a3.223,3.223,0,0,0-.437-1.891,1.862,1.862,0,0,0-1.594-.594,2.5,2.5,0,0,0-2.328,1.391l.016.219V34h-5.281V23.359a3.388,3.388,0,0,0-.422-1.922,1.857,1.857,0,0,0-1.609-.594,2.525,2.525,0,0,0-2.312,1.391V34H158.7V17.094ZM194.4,34.313a8.691,8.691,0,0,1-6.3-2.32,8.013,8.013,0,0,1-2.406-6.039v-.437a10.383,10.383,0,0,1,.961-4.578,7.031,7.031,0,0,1,2.8-3.07,8.467,8.467,0,0,1,4.375-1.086,7.318,7.318,0,0,1,5.625,2.211,8.688,8.688,0,0,1,2.063,6.164V27.2H191.057a3.8,3.8,0,0,0,1.234,2.234,3.673,3.673,0,0,0,2.469.813,4.732,4.732,0,0,0,3.906-1.75l2.406,2.844a6.726,6.726,0,0,1-2.789,2.164A9.425,9.425,0,0,1,194.4,34.313Zm-.594-13.469q-2.313,0-2.75,3.063h5.313V23.5a2.608,2.608,0,0,0-.641-1.961A2.549,2.549,0,0,0,193.807,20.844Zm20.063,1.016-1.734-.125q-2.484,0-3.187,1.563V34h-5.266V17.094h4.938l.172,2.172a4.077,4.077,0,0,1,3.7-2.484,5.135,5.135,0,0,1,1.469.188Zm1.281,3.563a11.415,11.415,0,0,1,.844-4.531,6.793,6.793,0,0,1,2.422-3.039,6.384,6.384,0,0,1,3.672-1.07,5.076,5.076,0,0,1,4.125,1.781l.188-1.469h4.781V33.359a7.128,7.128,0,0,1-1.039,3.883,6.667,6.667,0,0,1-3.008,2.531,11.056,11.056,0,0,1-4.562.883,9.538,9.538,0,0,1-3.6-.7,6.5,6.5,0,0,1-2.664-1.828l2.2-3.094a4.828,4.828,0,0,0,3.875,1.734q3.5,0,3.5-3.594v-.531a4.945,4.945,0,0,1-3.828,1.672,6.11,6.11,0,0,1-5-2.367,9.808,9.808,0,0,1-1.906-6.336Zm5.281.328a6.014,6.014,0,0,0,.781,3.289A2.465,2.465,0,0,0,223.4,30.25a2.8,2.8,0,0,0,2.484-1.141V22a2.727,2.727,0,0,0-2.453-1.156,2.481,2.481,0,0,0-2.2,1.258A6.859,6.859,0,0,0,220.432,25.75Zm21.922,8.563a8.691,8.691,0,0,1-6.3-2.32,8.013,8.013,0,0,1-2.406-6.039v-.437a10.383,10.383,0,0,1,.961-4.578,7.031,7.031,0,0,1,2.8-3.07,8.467,8.467,0,0,1,4.375-1.086,7.318,7.318,0,0,1,5.625,2.211,8.688,8.688,0,0,1,2.063,6.164V27.2H239.01a3.8,3.8,0,0,0,1.234,2.234,3.673,3.673,0,0,0,2.469.813,4.732,4.732,0,0,0,3.906-1.75l2.406,2.844a6.726,6.726,0,0,1-2.789,2.164A9.425,9.425,0,0,1,242.354,34.313Zm-.594-13.469q-2.313,0-2.75,3.063h5.313V23.5a2.608,2.608,0,0,0-.641-1.961A2.549,2.549,0,0,0,241.76,20.844Zm14.672-3.75.172,1.984a5.733,5.733,0,0,1,4.828-2.3,4.823,4.823,0,0,1,3.945,1.578,7.513,7.513,0,0,1,1.352,4.75V34h-5.281V23.328a2.853,2.853,0,0,0-.516-1.883,2.385,2.385,0,0,0-1.875-.6,2.511,2.511,0,0,0-2.3,1.219V34h-5.266V17.094ZM276.791,30.25a2.342,2.342,0,0,0,1.719-.6,2.206,2.206,0,0,0,.594-1.68h4.938a5.845,5.845,0,0,1-1.992,4.563,7.41,7.41,0,0,1-5.133,1.781A7.5,7.5,0,0,1,271.1,32a9.112,9.112,0,0,1-2.125-6.406v-.219a10.3,10.3,0,0,1,.945-4.523,6.883,6.883,0,0,1,2.727-3.016,8.13,8.13,0,0,1,4.219-1.055,7.317,7.317,0,0,1,5.234,1.828,6.484,6.484,0,0,1,1.938,4.953H279.1a2.89,2.89,0,0,0-.641-2.016,2.211,2.211,0,0,0-1.719-.7q-2.047,0-2.391,2.609a18.414,18.414,0,0,0-.109,2.281,7.232,7.232,0,0,0,.609,3.531A2.11,2.11,0,0,0,276.791,30.25ZM291.822,34h-5.281V17.094h5.281Zm-5.594-21.266a2.35,2.35,0,0,1,.813-1.844,3.455,3.455,0,0,1,4.219,0,2.35,2.35,0,0,1,.813,1.844,2.35,2.35,0,0,1-.812,1.844,3.455,3.455,0,0,1-4.219,0A2.35,2.35,0,0,1,286.229,12.734ZM304.588,34a5.946,5.946,0,0,1-.5-1.516,4.9,4.9,0,0,1-4.062,1.828,6,6,0,0,1-4.062-1.445,4.6,4.6,0,0,1-1.672-3.633,4.728,4.728,0,0,1,2.031-4.156,10.348,10.348,0,0,1,5.906-1.406h1.625v-.9q0-2.339-2.016-2.339a1.648,1.648,0,0,0-1.875,1.853H294.7a4.72,4.72,0,0,1,2.086-3.98,8.766,8.766,0,0,1,5.32-1.529,7.686,7.686,0,0,1,5.109,1.578,5.487,5.487,0,0,1,1.922,4.328v7.484a7.665,7.665,0,0,0,.719,3.563V34Zm-3.3-3.437a2.937,2.937,0,0,0,1.633-.422,2.644,2.644,0,0,0,.93-.953v-2.7h-1.531q-2.75,0-2.75,2.469a1.507,1.507,0,0,0,.484,1.164A1.753,1.753,0,0,0,301.291,30.563ZM320.9,29.25a1.216,1.216,0,0,0-.7-1.078,10.7,10.7,0,0,0-2.672-.844,12.184,12.184,0,0,1-3.25-1.148,5.444,5.444,0,0,1-1.953-1.727,4.123,4.123,0,0,1-.672-2.328,4.673,4.673,0,0,1,1.922-3.836,7.917,7.917,0,0,1,5.031-1.508,8.771,8.771,0,0,1,5.375,1.516,4.74,4.74,0,0,1,2.031,3.984h-5.281q0-2.031-2.141-2.031a2.122,2.122,0,0,0-1.391.461,1.427,1.427,0,0,0-.562,1.148A1.31,1.31,0,0,0,317.322,23a6.5,6.5,0,0,0,2.2.719,18.97,18.97,0,0,1,2.648.672q3.812,1.313,3.813,4.7a4.428,4.428,0,0,1-2.055,3.766,9.01,9.01,0,0,1-5.32,1.453,9.2,9.2,0,0,1-3.875-.781,6.48,6.48,0,0,1-2.656-2.125,4.812,4.812,0,0,1-.953-2.828h4.922a2.035,2.035,0,0,0,.781,1.711,3.214,3.214,0,0,0,1.922.539,2.528,2.528,0,0,0,1.617-.437A1.4,1.4,0,0,0,320.9,29.25Zm22.266-2.625,2.813-9.531h5.641l-6.891,19.734-.3.719a5.235,5.235,0,0,1-5.187,3.281,8.252,8.252,0,0,1-2.172-.311V36.766h.688a3.6,3.6,0,0,0,1.7-.321,1.945,1.945,0,0,0,.867-1.149l.422-1.126-5.875-17.076h5.625ZM94.682,65.25a2.342,2.342,0,0,0,1.719-.6,2.206,2.206,0,0,0,.594-1.68h4.937a5.845,5.845,0,0,1-1.992,4.563,7.41,7.41,0,0,1-5.133,1.781A7.5,7.5,0,0,1,88.994,67a9.112,9.112,0,0,1-2.125-6.406v-.219a10.3,10.3,0,0,1,.945-4.523,6.883,6.883,0,0,1,2.727-3.016,8.13,8.13,0,0,1,4.219-1.055,7.317,7.317,0,0,1,5.234,1.828,6.484,6.484,0,0,1,1.937,4.953H96.994a2.89,2.89,0,0,0-.641-2.016,2.211,2.211,0,0,0-1.719-.7q-2.047,0-2.391,2.609a18.413,18.413,0,0,0-.109,2.281,7.232,7.232,0,0,0,.609,3.531A2.11,2.11,0,0,0,94.682,65.25Zm8.812-4.859a9.978,9.978,0,0,1,.984-4.508,7.04,7.04,0,0,1,2.828-3.039,8.518,8.518,0,0,1,4.328-1.062,7.774,7.774,0,0,1,5.984,2.352,9.024,9.024,0,0,1,2.188,6.4v.188a8.755,8.755,0,0,1-2.2,6.273,7.794,7.794,0,0,1-5.945,2.32,7.883,7.883,0,0,1-5.8-2.164,8.464,8.464,0,0,1-2.359-5.867Zm5.266.328a6.291,6.291,0,0,0,.734,3.438,2.447,2.447,0,0,0,2.172,1.094q2.813,0,2.875-4.328v-.531q0-4.547-2.906-4.547-2.641,0-2.859,3.922Zm18.2-8.625.172,1.984a5.733,5.733,0,0,1,4.828-2.3,4.823,4.823,0,0,1,3.945,1.578,7.513,7.513,0,0,1,1.352,4.75V69h-5.281V58.328a2.853,2.853,0,0,0-.516-1.883,2.385,2.385,0,0,0-1.875-.6,2.511,2.511,0,0,0-2.3,1.219V69h-5.266V52.094Zm19.344-4.2v4.2h2.781V55.75h-2.781v7.734a1.975,1.975,0,0,0,.344,1.328,1.844,1.844,0,0,0,1.359.375,7.725,7.725,0,0,0,1.313-.094v3.766a9.718,9.718,0,0,1-2.969.453,5.516,5.516,0,0,1-4.016-1.281,5.252,5.252,0,0,1-1.3-3.891V55.75h-2.156V52.094h2.156v-4.2ZM156.713,69h-5.281V52.094h5.281Zm-5.594-21.266a2.35,2.35,0,0,1,.813-1.844,3.455,3.455,0,0,1,4.219,0,2.5,2.5,0,0,1,0,3.688,3.455,3.455,0,0,1-4.219,0A2.35,2.35,0,0,1,151.119,47.734Zm13.672,4.359.172,1.984a5.733,5.733,0,0,1,4.828-2.3,4.823,4.823,0,0,1,3.945,1.578,7.513,7.513,0,0,1,1.352,4.75V69h-5.281V58.328a2.853,2.853,0,0,0-.516-1.883,2.385,2.385,0,0,0-1.875-.6,2.511,2.511,0,0,0-2.3,1.219V69h-5.266V52.094Zm12.594,8.328a11.415,11.415,0,0,1,.844-4.531,6.793,6.793,0,0,1,2.422-3.039,6.384,6.384,0,0,1,3.672-1.07,5.076,5.076,0,0,1,4.125,1.781l.188-1.469h4.781V68.359a7.128,7.128,0,0,1-1.039,3.883,6.667,6.667,0,0,1-3.008,2.531,11.056,11.056,0,0,1-4.562.883,9.538,9.538,0,0,1-3.6-.7,6.5,6.5,0,0,1-2.664-1.828l2.2-3.094a4.828,4.828,0,0,0,3.875,1.734q3.5,0,3.5-3.594v-.531a4.945,4.945,0,0,1-3.828,1.672,6.11,6.11,0,0,1-5-2.367,9.808,9.808,0,0,1-1.906-6.336Zm5.281.328a6.014,6.014,0,0,0,.781,3.289,2.465,2.465,0,0,0,2.188,1.211,2.8,2.8,0,0,0,2.484-1.141V57a2.727,2.727,0,0,0-2.453-1.156,2.481,2.481,0,0,0-2.2,1.258A6.859,6.859,0,0,0,182.666,60.75Zm21.922,8.563a8.691,8.691,0,0,1-6.3-2.32,8.013,8.013,0,0,1-2.406-6.039v-.437a10.383,10.383,0,0,1,.961-4.578,7.031,7.031,0,0,1,2.8-3.07,8.467,8.467,0,0,1,4.375-1.086,7.318,7.318,0,0,1,5.625,2.211,8.688,8.688,0,0,1,2.063,6.164V62.2H201.244a3.8,3.8,0,0,0,1.234,2.234,3.673,3.673,0,0,0,2.469.813,4.732,4.732,0,0,0,3.906-1.75l2.406,2.844a6.726,6.726,0,0,1-2.789,2.164A9.425,9.425,0,0,1,204.588,69.313Zm-.594-13.469q-2.313,0-2.75,3.063h5.313V58.5a2.608,2.608,0,0,0-.641-1.961A2.549,2.549,0,0,0,203.994,55.844Zm14.672-3.75.172,1.984a5.733,5.733,0,0,1,4.828-2.3,4.823,4.823,0,0,1,3.945,1.578,7.513,7.513,0,0,1,1.352,4.75V69h-5.281V58.328a2.853,2.853,0,0,0-.516-1.883,2.385,2.385,0,0,0-1.875-.6,2.511,2.511,0,0,0-2.3,1.219V69h-5.266V52.094ZM239.025,65.25a2.342,2.342,0,0,0,1.719-.6,2.206,2.206,0,0,0,.594-1.68h4.938a5.845,5.845,0,0,1-1.992,4.563,7.41,7.41,0,0,1-5.133,1.781A7.5,7.5,0,0,1,233.338,67a9.112,9.112,0,0,1-2.125-6.406v-.219a10.3,10.3,0,0,1,.945-4.523,6.883,6.883,0,0,1,2.727-3.016,8.13,8.13,0,0,1,4.219-1.055,7.317,7.317,0,0,1,5.234,1.828,6.484,6.484,0,0,1,1.938,4.953h-4.937a2.89,2.89,0,0,0-.641-2.016,2.211,2.211,0,0,0-1.719-.7q-2.047,0-2.391,2.609a18.411,18.411,0,0,0-.109,2.281,7.232,7.232,0,0,0,.609,3.531A2.11,2.11,0,0,0,239.025,65.25ZM254.057,69h-5.281V52.094h5.281Zm-5.594-21.266a2.35,2.35,0,0,1,.813-1.844,3.455,3.455,0,0,1,4.219,0,2.5,2.5,0,0,1,0,3.688,3.455,3.455,0,0,1-4.219,0A2.35,2.35,0,0,1,248.463,47.734ZM266.822,69a5.946,5.946,0,0,1-.5-1.516,4.9,4.9,0,0,1-4.062,1.828,6,6,0,0,1-4.062-1.445,4.6,4.6,0,0,1-1.672-3.633,4.728,4.728,0,0,1,2.031-4.156,10.348,10.348,0,0,1,5.906-1.406h1.625v-.9q0-2.339-2.016-2.339A1.648,1.648,0,0,0,262.2,57.29h-5.266a4.72,4.72,0,0,1,2.086-3.98,8.766,8.766,0,0,1,5.32-1.529,7.686,7.686,0,0,1,5.109,1.578,5.487,5.487,0,0,1,1.922,4.328v7.484a7.665,7.665,0,0,0,.719,3.563V69Zm-3.3-3.437a2.937,2.937,0,0,0,1.633-.422,2.644,2.644,0,0,0,.93-.953v-2.7h-1.531q-2.75,0-2.75,2.469a1.507,1.507,0,0,0,.484,1.164A1.753,1.753,0,0,0,263.525,65.563Zm19.609-1.312a1.216,1.216,0,0,0-.7-1.078,10.7,10.7,0,0,0-2.672-.844,12.184,12.184,0,0,1-3.25-1.148,5.444,5.444,0,0,1-1.953-1.727,4.123,4.123,0,0,1-.672-2.328,4.673,4.673,0,0,1,1.922-3.836,7.917,7.917,0,0,1,5.031-1.508,8.771,8.771,0,0,1,5.375,1.516,4.74,4.74,0,0,1,2.031,3.984h-5.281q0-2.031-2.141-2.031a2.122,2.122,0,0,0-1.391.461,1.427,1.427,0,0,0-.562,1.148A1.31,1.31,0,0,0,279.557,58a6.5,6.5,0,0,0,2.2.719,18.97,18.97,0,0,1,2.648.672q3.812,1.313,3.813,4.7a4.428,4.428,0,0,1-2.055,3.766,9.01,9.01,0,0,1-5.32,1.453,9.2,9.2,0,0,1-3.875-.781,6.48,6.48,0,0,1-2.656-2.125,4.812,4.812,0,0,1-.953-2.828h4.922a2.035,2.035,0,0,0,.781,1.711,3.214,3.214,0,0,0,1.922.539,2.528,2.528,0,0,0,1.617-.437A1.4,1.4,0,0,0,283.135,64.25Z" transform="translate(598.514 1252.754)" fill="#12263f"/>
  </g>
</svg>
