<svg xmlns="http://www.w3.org/2000/svg" xmlns:xlink="http://www.w3.org/1999/xlink" width="847.339" height="658.831" viewBox="0 0 847.339 658.831">
  <defs>
    <clipPath id="clip-path">
      <path id="Trazado_206645" data-name="Trazado 206645" d="M127.075,334.79l35.223-2.806c1.664-5.148,3.542-14.554-4.006-16.237-10.509-2.342-12.057-20.4-9.677-27,2.922-8.167,9.328-27.327-6.851-31.2-13.547-3.213-22.818-2.535-24.946-19.353s-12.173-26.882-27.482-24.753c-16.1,2.226-30.965-18.366-43.661-10.219-22.2,14.225,1.413,50.086,30.288,58.892s13.547,20.069,13.721,34c.329,19.024,25.643,13.122,32.9,20.089C128.353,321.669,128.043,329.778,127.075,334.79Z" transform="translate(-36.912 -201.309)" fill="none"/>
    </clipPath>
    <clipPath id="clip-path-2">
      <path id="Trazado_206654" data-name="Trazado 206654" d="M140,388.067l-37.99-.135s-7.083-19.508,2.284-33.23c19.082-27.985-6.774-42.751-16.663-50.551-14.941-11.767-22.972-28.643-.929-35.9s0-41.455-26.824-57c-26.262-15.192-14.418-70.678,45.48-43,35.765,16.528,30.017,54.479,31.681,74.355s31.178,21.6,21,45.809c-8.709,20.689-25.159,35.746-12.7,50.028S159.062,368.713,140,388.067Z" transform="translate(-46.683 -160.633)" fill="none"/>
    </clipPath>
    <clipPath id="clip-path-3">
      <path id="Trazado_206664" data-name="Trazado 206664" d="M198.829,367.117l-30.385-7.741s-7.741-22.759,3.406-28.817,6.928-27.927,6-39.848c-2.555-32.339,32.4-29.4,32.436-71.22,0-11.128-3.7-32.339,5.69-41.2,10.683-10.083,18.482-.194,25.353-8.632,10.722-13.18,28.159-17.921,38.532-4.335s-2.206,40.061-33.152,61.5c-20.476,17.9-20.8,23.224-19.179,36.307,1.122,9.135,9.831,32.9-2.574,42.442s-21.869,19.779-17.089,30.094C215.125,351.3,198.829,367.117,198.829,367.117Z" transform="translate(-165.828 -157.168)" fill="none"/>
    </clipPath>
    <clipPath id="clip-path-4">
      <path id="Trazado_206673" data-name="Trazado 206673" d="M165.234,386.378l36.229,11.36s12.657-16.45,7.9-32.359c-9.677-32.455,19.353-38.707,31.159-43.158,17.786-6.7,30.539-20.36,11.728-33.946s12.5-39.539,42.79-46.216c29.649-6.541,35.126-63.014-30.327-54.731-39.094,4.935-45.093,42.848-52.68,61.272s-36.268,11.167-33.868,37.333c1.935,22.353,13.18,41.668-3.038,51.518S152.906,362.167,165.234,386.378Z" transform="translate(-158.666 -186.502)" fill="none"/>
    </clipPath>
    <linearGradient id="linear-gradient" x1="19.731" y1="-2.513" x2="20.42" y2="-1.553" gradientUnits="objectBoundingBox">
      <stop offset="0" stop-color="#efc250"/>
      <stop offset="1" stop-color="#d66f58"/>
    </linearGradient>
    <clipPath id="clip-path-5">
      <path id="Trazado_206680" data-name="Trazado 206680" d="M198.566,367.8l-35.339.813c-2.168-4.954-4.993-14.128,2.342-16.566,10.2-3.406,9.909-21.521,6.89-27.849-3.755-7.741-12.076-26.224,3.619-31.72,13.063-4.587,22.45-4.858,22.837-21.889s9.367-27.888,24.811-27.366c16.237.581,28.875-21.4,42.384-14.592,23.534,11.864,3.7,49.951-24.114,61.66s-11.36,21.289-10.18,35.223c1.606,18.966-24.172,15.676-30.714,23.34C195.992,354.875,197.192,362.907,198.566,367.8Z" transform="translate(-160.833 -227.323)" fill="none"/>
    </clipPath>
    <linearGradient id="linear-gradient-2" y1="0.5" x2="1" y2="0.5" gradientUnits="objectBoundingBox">
      <stop offset="0" stop-color="#484c88"/>
      <stop offset="1" stop-color="#2a2a4f"/>
    </linearGradient>
    <linearGradient id="linear-gradient-3" y1="0.5" x2="1" y2="0.5" gradientUnits="objectBoundingBox">
      <stop offset="0" stop-color="#cd8bd8"/>
      <stop offset="1" stop-color="#8a70f1"/>
    </linearGradient>
    <linearGradient id="linear-gradient-4" x1="-0.001" y1="0.499" x2="1" y2="0.499" xlink:href="#linear-gradient-2"/>
    <linearGradient id="linear-gradient-5" x1="0" y1="0.5" x2="1" y2="0.5" xlink:href="#linear-gradient-2"/>
    <linearGradient id="linear-gradient-6" x1="0.226" y1="1.759" x2="0.668" y2="-0.365" gradientUnits="objectBoundingBox">
      <stop offset="0" stop-color="#ebedf0"/>
      <stop offset="1" stop-color="#fff"/>
    </linearGradient>
    <linearGradient id="linear-gradient-7" x1="1.287" y1="-0.227" x2="-0.141" y2="1.238" xlink:href="#linear-gradient"/>
    <linearGradient id="linear-gradient-8" x1="0.804" y1="0.286" x2="-0.74" y2="1.805" xlink:href="#linear-gradient"/>
    <linearGradient id="linear-gradient-9" x1="0.581" y1="0.412" x2="-1.178" y2="3.114" xlink:href="#linear-gradient"/>
    <linearGradient id="linear-gradient-10" x1="0.646" y1="-0.064" x2="-0.173" y2="2.522" xlink:href="#linear-gradient"/>
    <linearGradient id="linear-gradient-11" x1="0.782" y1="0.329" x2="-0.103" y2="0.986" xlink:href="#linear-gradient"/>
    <linearGradient id="linear-gradient-12" x1="0.416" y1="0.207" x2="0.654" y2="0.652" xlink:href="#linear-gradient"/>
    <linearGradient id="linear-gradient-13" x1="-331.832" y1="1.151" x2="-331.832" y2="-0.031" xlink:href="#linear-gradient"/>
    <linearGradient id="linear-gradient-14" x1="-350.814" y1="0.738" x2="-350.814" y2="-0.117" xlink:href="#linear-gradient"/>
    <linearGradient id="linear-gradient-15" x1="-46.16" y1="0.5" x2="-45.16" y2="0.5" gradientUnits="objectBoundingBox">
      <stop offset="0" stop-color="#2f1f45"/>
      <stop offset="1" stop-color="#783c74"/>
    </linearGradient>
    <linearGradient id="linear-gradient-16" x1="-45.839" y1="0.047" x2="-45.12" y2="0.677" xlink:href="#linear-gradient-15"/>
    <linearGradient id="linear-gradient-17" x1="-45.477" y1="-166.628" x2="-44.537" y2="-165.248" gradientUnits="objectBoundingBox">
      <stop offset="0" stop-color="#e58e83"/>
      <stop offset="1" stop-color="#dd6fb6"/>
    </linearGradient>
    <linearGradient id="linear-gradient-18" x1="-169.858" y1="-1.34" x2="-169.314" y2="1.116" xlink:href="#linear-gradient-3"/>
    <linearGradient id="linear-gradient-19" x1="-211.55" y1="0.292" x2="-212.298" y2="1.157" xlink:href="#linear-gradient"/>
    <linearGradient id="linear-gradient-20" x1="-1469.489" y1="-543.177" x2="-1472.911" y2="-537.369" xlink:href="#linear-gradient"/>
    <linearGradient id="linear-gradient-21" x1="0.017" y1="-1.017" x2="0.749" y2="1.219" xlink:href="#linear-gradient-2"/>
    <linearGradient id="linear-gradient-22" x1="0.051" y1="-0.578" x2="0.545" y2="0.804" xlink:href="#linear-gradient-17"/>
    <linearGradient id="linear-gradient-23" x1="0.483" y1="0.713" x2="-0.718" y2="5.758" xlink:href="#linear-gradient-15"/>
    <linearGradient id="linear-gradient-24" x1="0.553" y1="-0.989" x2="0.482" y2="1.176" xlink:href="#linear-gradient-15"/>
    <linearGradient id="linear-gradient-25" x1="0.457" y1="0.977" x2="0.182" y2="6.624" xlink:href="#linear-gradient-15"/>
    <linearGradient id="linear-gradient-26" x1="0.279" y1="0.562" x2="4.191" y2="-2.461" xlink:href="#linear-gradient-15"/>
    <linearGradient id="linear-gradient-27" x1="1.543" y1="-3.198" x2="0.185" y2="1.907" xlink:href="#linear-gradient-15"/>
    <linearGradient id="linear-gradient-28" x1="176.721" y1="-110.59" x2="177.104" y2="-110.59" xlink:href="#linear-gradient-15"/>
    <linearGradient id="linear-gradient-29" x1="0" y1="0.5" x2="1" y2="0.5" xlink:href="#linear-gradient-15"/>
    <linearGradient id="linear-gradient-30" x1="0" y1="0.5" x2="1" y2="0.5" xlink:href="#linear-gradient-15"/>
    <linearGradient id="linear-gradient-31" x1="0.482" y1="0.717" x2="-0.708" y2="5.724" gradientUnits="objectBoundingBox">
      <stop offset="0" stop-color="#92346b"/>
      <stop offset="1" stop-color="#6a313f"/>
    </linearGradient>
    <linearGradient id="linear-gradient-32" x1="0.553" y1="-0.988" x2="0.482" y2="1.177" gradientUnits="objectBoundingBox">
      <stop offset="0" stop-color="#efc250"/>
      <stop offset="0.54" stop-color="#e09453"/>
      <stop offset="1" stop-color="#d66f58"/>
    </linearGradient>
    <linearGradient id="linear-gradient-33" x1="0.457" y1="0.97" x2="0.185" y2="6.571" xlink:href="#linear-gradient"/>
    <linearGradient id="linear-gradient-34" x1="0.279" y1="0.562" x2="4.188" y2="-2.462" xlink:href="#linear-gradient-3"/>
    <linearGradient id="linear-gradient-35" x1="1.532" y1="-3.158" x2="0.187" y2="1.899" xlink:href="#linear-gradient-3"/>
    <linearGradient id="linear-gradient-36" x1="176.772" y1="-110.608" x2="177.155" y2="-110.608" xlink:href="#linear-gradient-2"/>
    <linearGradient id="linear-gradient-37" x1="0" y1="0.5" x2="1" y2="0.5" xlink:href="#linear-gradient-2"/>
  </defs>
  <g id="Grupo_160420" data-name="Grupo 160420" transform="translate(-378.642 -3681.612)">
    <g id="Grupo_160023" data-name="Grupo 160023" transform="translate(177.676 696.956)">
      <g id="Grupo_160264" data-name="Grupo 160264" transform="translate(-2574.665 3811.749) rotate(-90)">
        <g id="Grupo_160021" data-name="Grupo 160021">
          <path id="Trazado_206618" data-name="Trazado 206618" d="M155.75,244.7V652.28A416.1,416.1,0,0,0,445.778,534.709Z" transform="translate(254.241 2958.503)" fill="#fedc72"/>
          <path id="Trazado_206619" data-name="Trazado 206619" d="M155.75,501.706v15.812A416.1,416.1,0,0,0,445.778,399.947L434.592,388.78A400.44,400.44,0,0,1,155.75,501.706Z" transform="translate(254.241 3093.265)" fill="#fdb74d"/>
        </g>
        <g id="Grupo_160018" data-name="Grupo 160018">
          <path id="Trazado_206622" data-name="Trazado 206622" d="M445.778,141.341A416.289,416.289,0,0,0,155.75,23.77v407.6Z" transform="translate(254.241 2751.861)" fill="#8c6df2"/>
          <path id="Trazado_206623" data-name="Trazado 206623" d="M434.592,152.527l11.186-11.186A416.289,416.289,0,0,0,155.75,23.77V39.7a400.362,400.362,0,0,1,278.842,112.83Z" transform="translate(254.241 2751.861)" fill="#5038a1"/>
        </g>
        <g id="Grupo_160020" data-name="Grupo 160020">
          <path id="Trazado_206616" data-name="Trazado 206616" d="M447.642,526.719A416.1,416.1,0,0,0,565.135,243H164Z" transform="translate(261.958 2956.912)" fill="#8c6df2"/>
          <path id="Trazado_206617" data-name="Trazado 206617" d="M417.629,243A400.342,400.342,0,0,1,304.78,515.475l11.186,11.167A416.1,416.1,0,0,0,433.46,243Z" transform="translate(393.633 2956.912)" fill="#5038a1"/>
        </g>
        <g id="Grupo_160019" data-name="Grupo 160019">
          <path id="Trazado_206620" data-name="Trazado 206620" d="M164,373.054H565.135A416.1,416.1,0,0,0,447.642,89.47Z" transform="translate(261.958 2813.312)" fill="#fedc72"/>
          <path id="Trazado_206621" data-name="Trazado 206621" d="M417.629,373.054H433.46A416.1,416.1,0,0,0,315.966,89.47L304.78,100.656a400.342,400.342,0,0,1,112.849,272.4Z" transform="translate(393.633 2813.312)" fill="#fdb74d"/>
        </g>
      </g>
      <g id="Grupo_160022" data-name="Grupo 160022" transform="translate(221.535 211)">
        <path id="Trazado_206638" data-name="Trazado 206638" d="M252.343,136.223C145.455,133.2,52.714,207.288,38.722,304.5,23.413,410.691,107.658,506.413,211.256,521.721,340.188,540.765,465.249,430.567,454.024,311,445.624,220.913,361.089,139.281,252.343,136.223Z" transform="translate(143.094 2856.958)" fill="#f4f6f9"/>
        <path id="Trazado_206769" data-name="Trazado 206769" d="M666.579,55.9a422.634,422.634,0,0,1-40.251,28.006,349.738,349.738,0,0,1-45.452,23.352A287.886,287.886,0,0,1,529.2,123.757a220.415,220.415,0,0,1-28.5,4.2c-2.458.158-4.914.36-7.406.418-1.243.04-2.486.1-3.737.118l-3.763.012c-2.527.018-4.958-.061-7.454-.1-2.466-.113-4.956-.187-7.419-.367-19.807-1.281-38.993-5.392-56.856-10.558-17.919-5.174-34.676-11.418-50.8-17.4-8.055-3-15.987-5.921-23.788-8.635-3.907-1.372-7.771-2.657-11.618-3.914-1.917-.6-3.835-1.229-5.739-1.8l-5.9-1.78c-16.43-4.942-32.487-9.543-48.3-13.213-7.9-1.838-15.721-3.444-23.41-4.734q-5.766-.968-11.419-1.695-5.652-.7-11.143-1.115c-14.635-1.139-28.171-.561-39.413,1.772-2.816.582-5.5,1.273-8.052,2.054-1.282.384-2.522.812-3.745,1.243l-1.8.676c-.54.229-1.084.44-1.613.68a57.406,57.406,0,0,0-11.675,6.74c-.863.658-1.707,1.325-2.509,2.023L150.024,81c-1.077.9-2.041,1.836-3.069,2.734-.991.916-1.893,1.858-2.849,2.766A69.552,69.552,0,0,0,135,97.831a53.454,53.454,0,0,0-5.689,11.647,48.612,48.612,0,0,0-2.554,12.084c-.758,8.22.4,16.931,3.113,25.931a115.01,115.01,0,0,0,12.913,27.319,139.29,139.29,0,0,0,9.484,13.278c1.716,2.134,3.492,4.218,5.273,6.181.888.973,1.792,1.914,2.657,2.767.43.423.86.835,1.243,1.169a6.709,6.709,0,0,0,.531.436c.067.04.162.122.19.11l.032.005c.005-.005.04.029-.009-.048l-.188-.316c21.192,27.289,8.607,62.18-28.11,77.932s-83.664,6.4-104.855-20.892l-.6-.859-.385-.587-.615-.982-1.051-1.761c-.662-1.134-1.256-2.2-1.833-3.261-1.149-2.114-2.2-4.163-3.214-6.2-2.007-4.059-3.825-8.061-5.509-12.075A222.562,222.562,0,0,1,7.3,205.44,179.461,179.461,0,0,1,0,154.594,135.794,135.794,0,0,1,25.051,75.573,150.134,150.134,0,0,1,45.33,52.394,182.325,182.325,0,0,1,70.183,32.923c2.237-1.417,4.451-2.859,6.717-4.222,2.285-1.333,4.542-2.7,6.857-3.972l3.478-1.885c1.184-.636,2.234-1.213,3.653-1.943,2.67-1.4,5.411-2.718,8.193-3.985A183.377,183.377,0,0,1,134.656,4.994c1.555-.361,3.131-.679,4.7-1,1.538-.3,3.055-.58,4.585-.85,3.061-.522,6.125-1,9.194-1.383C159.267.973,165.4.457,171.45.2a237.441,237.441,0,0,1,35.121,1.177,277.6,277.6,0,0,1,32.058,5.367A393.941,393.941,0,0,1,294.42,24.16c17.148,6.678,33.131,13.949,48.511,21.156l6,2.825c2.058.969,4.045,1.962,6.059,2.943,3.961,1.983,7.877,3.976,11.666,5.988,7.625,4.016,14.925,8.065,22.129,12,14.387,7.879,28.259,15.456,42.56,21.864a203.574,203.574,0,0,0,44.562,14.641c1.939.4,3.9.7,5.858,1.047l2.956.425,1.483.215c.492.064.976.1,1.465.152l2.934.294c.983.085,1.977.134,2.969.206,1.98.164,3.993.193,6,.273,2.016.048,4.047.043,6.083.039,2.04-.071,4.087-.055,6.14-.193l3.086-.161c1.03-.058,2.06-.157,3.091-.235,2.064-.15,4.124-.382,6.189-.614,2.071-.2,4.123-.536,6.194-.8,2.064-.294,4.119-.651,6.185-.979,2.043-.4,4.1-.778,6.143-1.2,2.031-.458,4.089-.861,6.112-1.363q6.1-1.429,12.07-3.226c1.994-.589,3.986-1.184,5.95-1.837l2.957-.963,2.915-1.034a238.718,238.718,0,0,0,43.825-20.651A194.287,194.287,0,0,0,652.75,47.187c3-2.986,8.7-3.6,12.715-1.364s4.839,6.464,1.835,9.45a7.7,7.7,0,0,1-.677.6Z" transform="matrix(-0.978, -0.208, 0.208, -0.978, 767.729, 3432.487)" fill="#fdb74d"/>
        <path id="Trazado_206639" data-name="Trazado 206639" d="M127.056,324.3l.426.155a80.238,80.238,0,0,0,29.223,4.083l6.5-.716c1.432-5.283,1.935-10.567-4.916-12.076-10.509-2.342-12.057-20.4-9.677-27,2.922-8.167,9.328-27.327-6.851-31.2-13.547-3.213-22.818-2.535-24.946-19.353s-12.173-26.882-27.482-24.753c-16.1,2.226-30.965-18.366-43.661-10.219-22.2,14.225,1.413,50.086,30.288,58.892s13.547,20.069,13.721,34c.329,19.024,25.643,13.122,32.9,20.089A15.483,15.483,0,0,1,127.056,324.3Z" transform="translate(143.088 2917.918)" fill="#8c6df2"/>
        <g id="Grupo_159997" data-name="Grupo 159997" transform="translate(180 3119.228)" clip-path="url(#clip-path)">
          <g id="Grupo_159996" data-name="Grupo 159996" transform="translate(-5.422 5.595)" opacity="0.5">
            <path id="Trazado_206640" data-name="Trazado 206640" d="M143.638,325.235l.735-.213C129.22,271.1,87.978,224.811,36.75,204.2l-.29.716C87.475,225.431,128.465,271.549,143.638,325.235Z" transform="translate(-31.912 -204.2)" fill="#fff"/>
            <path id="Trazado_206641" data-name="Trazado 206641" d="M86.324,271.8H87.1c-1.664-21.947,15.831-40.468,16.005-40.642l-.542-.523C102.388,230.756,84.641,249.529,86.324,271.8Z" transform="translate(14.622 -179.47)" fill="#fff"/>
            <path id="Trazado_206642" data-name="Trazado 206642" d="M115.607,270.8l.639-.406C104.208,251.6,63.586,251.87,63.16,251.87v.774C63.586,252.644,103.8,252.373,115.607,270.8Z" transform="translate(-6.939 -159.613)" fill="#fff"/>
            <path id="Trazado_206643" data-name="Trazado 206643" d="M72.153,248.828l.677-.368c-8.245-15.657.445-41.377.542-41.629l-.716-.252C72.559,206.851,63.754,232.862,72.153,248.828Z" transform="translate(-1.92 -201.974)" fill="#fff"/>
            <path id="Trazado_206644" data-name="Trazado 206644" d="M78.042,218.509l.348-.677c-17.921-9.251-44.029-1.432-44.28-1.355l.213.735C34.594,217.213,60.392,209.491,78.042,218.509Z" transform="translate(-34.11 -195.672)" fill="#fff"/>
          </g>
        </g>
        <g id="Grupo_159999" data-name="Grupo 159999" transform="translate(198.911 3040.506)" clip-path="url(#clip-path-2)">
          <path id="Trazado_206646" data-name="Trazado 206646" d="M140,388.067l-37.99-.135s-7.083-19.508,2.284-33.23c19.082-27.985-6.774-42.751-16.663-50.551-14.941-11.767-21.482-26.92-3.445-36.771,20.4-11.031,2.555-40.642-24.308-56.124-26.262-15.192-14.418-70.678,45.48-43,35.765,16.528,30.017,54.479,31.681,74.355s31.178,21.6,21,45.809c-8.709,20.689-25.159,35.746-12.7,50.028S159.062,368.713,140,388.067Z" transform="translate(-46.683 -160.633)" fill="#fedc72"/>
          <g id="Grupo_159998" data-name="Grupo 159998" transform="translate(-6.606 1.252)" opacity="0.5">
            <path id="Trazado_206647" data-name="Trazado 206647" d="M126.741,386.062l-.793-.135c.1-.5,9.038-49.409,3.309-100.637-5.225-47.067-24.579-105.824-85.987-118.016l.155-.793c27.366,5.438,48.79,20.379,63.634,44.513,11.883,19.2,19.6,44.222,22.992,74.375C135.8,336.557,126.837,385.578,126.741,386.062Z" transform="translate(-43.27 -156.416)" fill="#fff"/>
            <path id="Trazado_206648" data-name="Trazado 206648" d="M82.83,226.094l-.794-.116c3.387-26.456-6.58-64.117-6.677-64.485l.774-.213C76.231,161.648,86.275,199.445,82.83,226.094Z" transform="translate(-13.255 -161.28)" fill="#fff"/>
            <path id="Trazado_206649" data-name="Trazado 206649" d="M99.349,192.219C72.409,175.3,47.1,183.3,46.9,183.374l-.252-.755c.271,0,25.856-8.206,53.125,8.922Z" transform="translate(-40.109 -143.158)" fill="#fff"/>
            <path id="Trazado_206650" data-name="Trazado 206650" d="M118.051,268.552c-8.844-37.836-60.227-47.28-60.731-47.319v-.813c.5,0,52.563,9.793,61.485,47.957Z" transform="translate(-30.129 -105.965)" fill="#fff"/>
            <path id="Trazado_206651" data-name="Trazado 206651" d="M89.224,256.913l-.774-.174c5.129-24.25,31.507-40.874,31.778-41.029l.426.677C120.48,216.6,94.295,233.031,89.224,256.913Z" transform="translate(-1.012 -110.37)" fill="#fff"/>
            <path id="Trazado_206652" data-name="Trazado 206652" d="M97.4,289.039c-1.1-14.708-22.063-26.437-22.276-26.553l.387-.7c.871.484,21.56,12.038,22.682,27.095Z" transform="translate(-13.48 -67.27)" fill="#fff"/>
            <path id="Trazado_206653" data-name="Trazado 206653" d="M88.193,284.3l-.793-.135c1.935-11.5,19.353-24.25,25.159-28.449.813-.581,1.51-1.1,1.626-1.219l.581.542a15.613,15.613,0,0,1-1.722,1.335C107.373,260.519,90.129,273.137,88.193,284.3Z" transform="translate(-1.994 -74.089)" fill="#fff"/>
          </g>
        </g>
        <path id="Trazado_206655" data-name="Trazado 206655" d="M208.012,335.637c4.18,9.038.194,18.057-3.638,24.153a9.444,9.444,0,0,0-2.361.465c-8.322,2.032-12.212,1.006-20.669,1.606a41.452,41.452,0,0,1-9.406-1.935l-4.025-1.393s-7.141-21.966,4.084-28.024,6.928-27.927,6-39.848c-2.555-32.339,32.4-29.4,32.436-71.22,0-11.128-3.7-32.339,5.69-41.2,10.683-10.083,18.482-.194,25.353-8.632,10.722-13.18,28.159-17.921,38.532-4.335s-2.206,40.061-33.152,61.5c-20.476,17.9-20.8,23.224-19.179,36.307,1.122,9.135,9.831,32.9-2.574,42.442S203.232,325.264,208.012,335.637Z" transform="translate(263.522 2876.584)" fill="#fedc72"/>
        <g id="Grupo_160001" data-name="Grupo 160001" transform="translate(429.495 3033.799)" clip-path="url(#clip-path-3)">
          <g id="Grupo_160000" data-name="Grupo 160000" transform="translate(2.365 -3.421)" opacity="0.5">
            <path id="Trazado_206656" data-name="Trazado 206656" d="M176.29,363.815h-.6c.445-3.677.948-7.374,1.51-11.012a388.114,388.114,0,0,1,18.966-75.788,313.53,313.53,0,0,1,26.572-55.563A261.869,261.869,0,0,1,250.3,183.985,209.85,209.85,0,0,1,271.953,162.7c1.277-1.084,2.651-2.109,3.967-3.116a64.162,64.162,0,0,0,5.225-4.18l.426.445a64.635,64.635,0,0,1-5.264,4.238,39.7,39.7,0,0,0-3.871,3.077,210.7,210.7,0,0,0-21.6,21.153A260.3,260.3,0,0,0,223.357,221.7a311.024,311.024,0,0,0-26.475,55.37,389.715,389.715,0,0,0-18.947,75.671C177.335,356.442,176.832,360.138,176.29,363.815Z" transform="translate(-158.969 -155.4)" fill="#f9f9f9"/>
            <path id="Trazado_206657" data-name="Trazado 206657" d="M194.5,234.3l-.561-.271c11.322-24.172,1.374-68.82,1.277-69.265l.6-.135C195.991,165.075,205.92,209.859,194.5,234.3Z" transform="translate(-141.899 -146.767)" fill="#f9f9f9"/>
            <path id="Trazado_206658" data-name="Trazado 206658" d="M181.19,252l-.6-.213c5.806-17.321,38.223-30.694,38.552-30.83l.232.581C219.045,221.676,186.88,234.933,181.19,252Z" transform="translate(-154.386 -94.08)" fill="#f9f9f9"/>
            <path id="Trazado_206659" data-name="Trazado 206659" d="M185.545,265.893h-.619c1.722-11.805-2.245-28.817-11.147-47.9-.465-.968-.465-.968-.445-1.084h.619s.194.445.387.852C183.3,236.844,187.287,253.972,185.545,265.893Z" transform="translate(-161.179 -97.868)" fill="#f9f9f9"/>
            <path id="Trazado_206660" data-name="Trazado 206660" d="M176.811,267.8l-.581-.271c5.535-11.9,24.443-16.605,24.637-16.644l.135.6C200.828,251.529,182.21,256.154,176.811,267.8Z" transform="translate(-158.464 -66.086)" fill="#f9f9f9"/>
            <path id="Trazado_206661" data-name="Trazado 206661" d="M183.52,278.085c-2.342-10.335-7.741-20.321-16.47-30.559l.484-.406c8.786,10.315,14.225,20.4,16.586,30.81Z" transform="translate(-167.05 -69.612)" fill="#f9f9f9"/>
            <path id="Trazado_206662" data-name="Trazado 206662" d="M211.791,191.06l-.561-.29a174.048,174.048,0,0,0,12.87-33.539c.348-1.219.484-1.645.542-1.78l.561.271s-.252.793-.5,1.684a176.114,176.114,0,0,1-12.909,33.655Z" transform="translate(-125.727 -155.353)" fill="#f9f9f9"/>
            <path id="Trazado_206663" data-name="Trazado 206663" d="M204.206,188.782l-.426-.426c9.928-9.793,37.816-9.483,39-9.464v.639C242.39,179.434,213.882,179.105,204.206,188.782Z" transform="translate(-132.695 -133.432)" fill="#f9f9f9"/>
          </g>
        </g>
        <g id="Grupo_160003" data-name="Grupo 160003" transform="translate(415.635 3090.571)" clip-path="url(#clip-path-4)">
          <path id="Trazado_206665" data-name="Trazado 206665" d="M165.234,386.378l36.229,11.36s12.657-16.45,7.9-32.359c-9.677-32.455,19.353-38.707,31.159-43.158,17.786-6.7,28.6-19.179,14.379-33.926-16.121-16.7,9.851-39.558,40.139-46.235,29.649-6.541,35.126-63.014-30.327-54.731-39.094,4.935-45.093,42.848-52.68,61.272s-36.268,11.167-33.868,37.332c1.935,22.353,13.18,41.668-3.038,51.518S152.906,362.167,165.234,386.378Z" transform="translate(-158.666 -186.502)" fill="#8c6df2"/>
          <g id="Grupo_160002" data-name="Grupo 160002" transform="translate(7.981 -4.611)" opacity="0.5">
            <path id="Trazado_206666" data-name="Trazado 206666" d="M169.62,383.367l.793.1c0-.5,6.309-49.835,27.249-96.863,19.353-43.332,55.37-93.515,117.649-86.567v-.793c-27.733-3.1-52.66,4.684-74.084,23.108-17.128,14.728-32.068,36.229-44.4,63.866C175.929,333.436,169.678,382.864,169.62,383.367Z" transform="translate(-156.402 -170.597)" fill="#fff"/>
            <path id="Trazado_206667" data-name="Trazado 206667" d="M202.21,243.883l.793.135c4.78-26.262,25.662-59.144,25.856-59.473l-.658-.426C227.989,184.526,207.01,217.543,202.21,243.883Z" transform="translate(-125.919 -184.12)" fill="#fff"/>
            <path id="Trazado_206668" data-name="Trazado 206668" d="M209.854,210.41c30.791-7.993,52.447,7.257,52.66,7.412l.464-.639c-.213-.174-22.159-15.637-53.318-7.567Z" transform="translate(-118.951 -162.453)" fill="#fff"/>
            <path id="Trazado_206669" data-name="Trazado 206669" d="M178.227,273.914c19.856-33.384,71.607-26.862,72.207-26.746l.213-.774c-.484-.155-53.067-6.58-73.1,27.095Z" transform="translate(-148.985 -126.423)" fill="#fff"/>
            <path id="Trazado_206670" data-name="Trazado 206670" d="M188.818,275.952h.793c2.439-24.675-17.689-48.48-17.9-48.732l-.6.523C171.3,228.052,191.218,251.624,188.818,275.952Z" transform="translate(-155.008 -143.807)" fill="#fff"/>
            <path id="Trazado_206671" data-name="Trazado 206671" d="M170.975,299.473c5.516-13.7,29.03-18.54,29.282-18.579l-.155-.794c-.987.194-24.192,4.974-29.862,19.063Z" transform="translate(-155.822 -94.347)" fill="#fff"/>
            <path id="Trazado_206672" data-name="Trazado 206672" d="M179.279,301.588l.793.116c1.568-11.612-11.186-29.03-15.386-34.72-.6-.813-1.1-1.51-1.181-1.664l-.716.329a14.848,14.848,0,0,0,1.239,1.8C168.19,273.119,180.808,290.344,179.279,301.588Z" transform="translate(-162.79 -108.171)" fill="#fff"/>
          </g>
        </g>
        <path id="Trazado_206674" data-name="Trazado 206674" d="M197.68,357.353l-.406.194a79.521,79.521,0,0,1-28.643,7.045h-6.541c-1.935-5.109-2.922-10.335,3.658-12.522,10.2-3.406,9.909-21.521,6.89-27.849-3.755-7.741-12.076-26.224,3.619-31.72,13.063-4.587,22.45-4.858,22.837-21.889s9.367-27.888,24.811-27.366c16.237.581,28.875-21.4,42.384-14.592,23.534,11.864,3.7,49.951-24.114,61.66s-11.36,21.289-10.18,35.223c1.606,18.966-24.172,15.676-30.714,23.34a15.676,15.676,0,0,0-3.6,8.477Z" transform="translate(258.817 2942.268)" fill="url(#linear-gradient)"/>
        <g id="Grupo_160005" data-name="Grupo 160005" transform="translate(419.828 3169.572)" clip-path="url(#clip-path-5)">
          <g id="Grupo_160004" data-name="Grupo 160004" transform="translate(7.91 4.001)" opacity="0.5">
            <path id="Trazado_206675" data-name="Trazado 206675" d="M172.035,360.7l-.755-.135c9.561-55.176,45.867-105.437,94.734-131.176l.348.677C217.709,255.73,181.557,305.758,172.035,360.7Z" transform="translate(-158.971 -229.39)" fill="#fbfcfd"/>
            <path id="Trazado_206676" data-name="Trazado 206676" d="M185.783,300.917h-.774c-.6-21.985-19.9-38.707-20.089-38.707l.5-.6C165.617,261.726,185.164,278.583,185.783,300.917Z" transform="translate(-164.92 -199.254)" fill="#fbfcfd"/>
            <path id="Trazado_206677" data-name="Trazado 206677" d="M173.047,303.682l-.677-.348c10.064-19.915,50.512-23.785,50.918-23.824v.755C222.959,280.342,182.918,284.174,173.047,303.682Z" transform="translate(-157.952 -182.511)" fill="#fbfcfd"/>
            <path id="Trazado_206678" data-name="Trazado 206678" d="M191.736,277.2l-.716-.29c6.619-16.412-4.664-41.106-4.78-41.358l.7-.31C187.053,235.472,198.471,260.477,191.736,277.2Z" transform="translate(-144.979 -223.918)" fill="#fbfcfd"/>
            <path id="Trazado_206679" data-name="Trazado 206679" d="M201.546,246.964l-.426-.639c16.9-11.031,43.661-5.922,43.932-5.806l-.155.755C244.626,241.158,218.17,236.107,201.546,246.964Z" transform="translate(-131.061 -220.179)" fill="#fbfcfd"/>
          </g>
        </g>
        <path id="Trazado_206681" data-name="Trazado 206681" d="M305.464,189.268,85.127,176.514c-5.071-.252-9.677,5.283-9.677,9.948v283.7c0,6.445,6.58,7.741,11.612,7.219l218.3-22.295a8.264,8.264,0,0,0,7.2-8.148V197.028A7.741,7.741,0,0,0,305.464,189.268Z" transform="translate(179.134 2894.719)" fill="url(#linear-gradient-2)"/>
        <path id="Trazado_206682" data-name="Trazado 206682" d="M307.315,187.2,86.552,176.34a8.38,8.38,0,0,0-9.212,8.032V470.3a7.877,7.877,0,0,0,9.212,7.529L307.315,455.1a8.322,8.322,0,0,0,7.2-8.206V195.074A7.741,7.741,0,0,0,307.315,187.2Z" transform="translate(180.902 2894.524)" fill="#d8dce6"/>
        <path id="Trazado_206683" data-name="Trazado 206683" d="M84.5,472.074a4.258,4.258,0,0,1-4.974-4.064V182.684A4.548,4.548,0,0,1,84.5,178.33l220.763,10.431A4.238,4.238,0,0,1,309.137,193V445.347a4.509,4.509,0,0,1-3.871,4.432Z" transform="translate(182.951 2896.406)" opacity="0.3" fill="url(#linear-gradient-3)"/>
        <path id="Trazado_206684" data-name="Trazado 206684" d="M280.08,433.521,91.25,451.713V188.47l188.83,7.122Z" transform="translate(193.913 2905.909)" fill="#fff"/>
        <path id="Trazado_206685" data-name="Trazado 206685" d="M186.268,206.354l-75.478.948,1.7-17.012a4.606,4.606,0,0,1,3.871-4.354L129.137,184a4.626,4.626,0,0,0,3.464-2.651l1.374-3.019,33.346,2.051Z" transform="translate(212.189 2896.425)" fill="#99a3b4" opacity="0.3"/>
        <path id="Trazado_206686" data-name="Trazado 206686" d="M226.519,210.47a4.064,4.064,0,0,0-3.871-3.368l-12.057-.542a9.677,9.677,0,0,1-9.29-10.315l.464-13.063a4.2,4.2,0,0,0-4.006-4.471l-3.871-.252a5.032,5.032,0,0,1-4.625-5.922,8.941,8.941,0,0,0-8.283-10.393,10.857,10.857,0,0,0-11.206,9.212,6.348,6.348,0,0,1-.852,2.322,6.174,6.174,0,0,1-5.554,2.961l-4.084-.232a5.4,5.4,0,0,0-5.458,4.025l-3.406,13.257a12.986,12.986,0,0,1-12.889,9.677l-13.238-.6a5.806,5.806,0,0,0-5.283,3.155l-7.974,15.812a1.935,1.935,0,0,0,1.568,2.748l114.707,3.871a2.109,2.109,0,0,0,2.09-2.439ZM179.3,173.486a2.613,2.613,0,0,1-2.361-3.1,3.135,3.135,0,0,1,3.271-2.709,2.613,2.613,0,0,1,2.439,3.058,3.174,3.174,0,0,1-3.348,2.748Z" transform="translate(212.25 2881.277)" fill="url(#linear-gradient-4)"/>
        <path id="Trazado_206687" data-name="Trazado 206687" d="M226.9,210.641a4.064,4.064,0,0,0-3.871-3.367l-12.057-.542a9.677,9.677,0,0,1-9.29-10.315l.464-13.044a4.219,4.219,0,0,0-4.006-4.49l-3.871-.232a5.012,5.012,0,0,1-4.606-5.922,8.96,8.96,0,0,0-8.3-10.393,10.838,10.838,0,0,0-11.206,9.193,6.019,6.019,0,0,1-.852,2.322,6.174,6.174,0,0,1-5.554,2.961l-4.084-.232a5.4,5.4,0,0,0-5.458,4.025L150.8,193.862a12.947,12.947,0,0,1-12.889,9.677l-13.238-.6a5.806,5.806,0,0,0-5.283,3.155L111.418,221.9a1.935,1.935,0,0,0,1.587,2.748l114.707,3.871a2.148,2.148,0,0,0,2.09-2.458Zm-47.222-37.023a2.613,2.613,0,0,1-2.438-3.058,3.174,3.174,0,0,1,3.271-2.709,2.613,2.613,0,0,1,2.439,3.077,3.174,3.174,0,0,1-3.329,2.69Z" transform="translate(212.606 2881.454)" fill="#99a3b4"/>
        <path id="Trazado_206688" data-name="Trazado 206688" d="M207.254,208.017c-10.219-6.329-18.076-1.935-24.443-8.961-6.832-7.625-2.226-17.67-9.29-22.411-4.529-3.038-8.554-.348-13.818-1.181a14.3,14.3,0,0,1-6.116-2.555l-2.845,11.051a12.947,12.947,0,0,1-12.889,9.677l-13.238-.6a5.806,5.806,0,0,0-5.283,3.155L111.358,212a1.935,1.935,0,0,0,1.587,2.748l104.334,3.387A30.849,30.849,0,0,0,207.254,208.017Z" transform="translate(212.55 2891.355)" fill="#fff" opacity="0.5"/>
        <path id="Trazado_206689" data-name="Trazado 206689" d="M249.973,214.331l-146.233-.89v-8.67l146.233,1.2Z" transform="translate(205.595 2921.155)" fill="#d8dce6"/>
        <path id="Trazado_206690" data-name="Trazado 206690" d="M249.973,221.639,103.74,221.31v-8.69l146.233.658Z" transform="translate(205.595 2928.498)" fill="#d8dce6"/>
        <path id="Trazado_206691" data-name="Trazado 206691" d="M249.973,228.937l-146.233.213v-8.67l146.233.1Z" transform="translate(205.595 2935.85)" fill="#d8dce6"/>
        <path id="Trazado_206692" data-name="Trazado 206692" d="M249.973,236.451l-146.233.793v-8.69l146.233-.465Z" transform="translate(205.595 2942.967)" fill="#d8dce6"/>
        <path id="Trazado_206693" data-name="Trazado 206693" d="M226.316,248.977,102.61,251.938V242.9l123.706-2.4Z" transform="translate(204.538 2954.574)" fill="#d8dce6"/>
        <path id="Trazado_206694" data-name="Trazado 206694" d="M226.316,256.637,102.61,260.624v-9.057l123.706-3.406Z" transform="translate(204.538 2961.739)" fill="#d8dce6"/>
        <path id="Trazado_206695" data-name="Trazado 206695" d="M226.316,264.307,102.61,269.281v-9.057l123.706-4.393Z" transform="translate(204.538 2968.913)" fill="#d8dce6"/>
        <path id="Trazado_206696" data-name="Trazado 206696" d="M226.316,271.977,102.61,277.938V268.88l123.706-5.38Z" transform="translate(204.538 2976.087)" fill="#d8dce6"/>
        <path id="Trazado_206697" data-name="Trazado 206697" d="M187.166,248.611,170.89,249V240.56l16.276-.31Z" transform="translate(268.402 2954.341)" fill="#d8dce6"/>
        <path id="Trazado_206698" data-name="Trazado 206698" d="M187.166,256.171l-16.276.542v-8.457l16.276-.445Z" transform="translate(268.402 2961.412)" fill="#d8dce6"/>
        <path id="Trazado_206699" data-name="Trazado 206699" d="M187.166,263.741l-16.276.658v-8.438l16.276-.581Z" transform="translate(268.402 2968.492)" fill="#d8dce6"/>
        <path id="Trazado_206700" data-name="Trazado 206700" d="M187.166,271.311l-16.276.774v-8.438l16.276-.7Z" transform="translate(268.402 2975.572)" fill="#d8dce6"/>
        <path id="Trazado_206701" data-name="Trazado 206701" d="M226.316,284.427,102.61,291.975v-9.038l123.706-6.987Z" transform="translate(204.538 2987.731)" fill="#d8dce6"/>
        <path id="Trazado_206702" data-name="Trazado 206702" d="M226.316,292.1,102.61,300.632v-9.038l123.706-7.974Z" transform="translate(204.538 2994.906)" fill="#d8dce6"/>
        <path id="Trazado_206703" data-name="Trazado 206703" d="M226.316,299.767,102.61,309.289v-9.038l123.706-8.961Z" transform="translate(204.538 3002.08)" fill="#d8dce6"/>
        <path id="Trazado_206704" data-name="Trazado 206704" d="M226.316,307.427,102.61,317.955v-9.038l123.706-9.967Z" transform="translate(204.538 3009.244)" fill="#d8dce6"/>
        <path id="Trazado_206705" data-name="Trazado 206705" d="M187.166,283.591l-16.276.987V276.14l16.276-.91Z" transform="translate(268.402 2987.059)" fill="#d8dce6"/>
        <path id="Trazado_206706" data-name="Trazado 206706" d="M187.166,291.151l-16.276,1.122v-8.438l16.276-1.045Z" transform="translate(268.402 2994.129)" fill="#d8dce6"/>
        <path id="Trazado_206707" data-name="Trazado 206707" d="M187.166,298.721l-16.276,1.258v-8.438l16.276-1.181Z" transform="translate(268.402 3001.21)" fill="#d8dce6"/>
        <path id="Trazado_206708" data-name="Trazado 206708" d="M187.166,306.291l-16.276,1.374v-8.438l16.276-1.3Z" transform="translate(268.402 3008.29)" fill="#d8dce6"/>
        <path id="Trazado_206709" data-name="Trazado 206709" d="M386.006,248.606,76.16,240.865c-17.166-.426-31.41,12.522-31.41,28.933v62.221c0,16.412,14.244,28.894,31.41,27.869l309.846-18.211c10.257-.6,18.444-11.089,18.444-23.437V271.4C404.45,259.076,396.264,248.877,386.006,248.606Z" transform="translate(150.42 2954.906)" fill="url(#linear-gradient-5)"/>
        <path id="Trazado_206710" data-name="Trazado 206710" d="M387.756,248.606,77.91,240.865C60.744,240.439,46.5,253.387,46.5,269.8v62.221c0,16.412,14.244,28.894,31.41,27.869l309.846-18.211c10.257-.6,18.444-11.089,18.444-23.437V271.4C406.2,259.076,398.014,248.877,387.756,248.606Z" transform="translate(152.057 2954.906)" fill="#99a3b4"/>
        <path id="Trazado_206711" data-name="Trazado 206711" d="M75.825,354.105c-14.844.832-27.095-10.006-27.095-24.153V267.906c0-14.147,12.289-25.391,27.095-25.062l309.846,6.928c8.883.213,16.025,9.077,16.025,19.779v46.874c0,10.7-7.141,19.8-16.025,20.3Z" transform="translate(154.142 2956.76)" fill="url(#linear-gradient-6)"/>
        <path id="Trazado_206712" data-name="Trazado 206712" d="M102.048,255.924l8.825,17.418a2.167,2.167,0,0,0,1.684,1.181l19.353,2.613a2.148,2.148,0,0,1,1.2,3.658l-13.9,13.663a2.187,2.187,0,0,0-.619,1.935l3.329,18.908a2.284,2.284,0,0,1-3.193,2.419L101.158,309.3a2.322,2.322,0,0,0-2.109,0l-18.1,9.851a2.245,2.245,0,0,1-3.387-2.226l3.5-19.721a2.09,2.09,0,0,0-.658-1.935l-15-13.683a2.245,2.245,0,0,1,1.316-3.871l20.592-3.058a2.322,2.322,0,0,0,1.742-1.219l9-17.67a2.284,2.284,0,0,1,3.987.155Z" transform="translate(169.083 2967.832)" fill="#d8dce6"/>
        <path id="Trazado_206713" data-name="Trazado 206713" d="M136.834,256.251l7.935,16.586a1.935,1.935,0,0,0,1.529,1.122l17.418,2.477a2.071,2.071,0,0,1,1.084,3.484l-12.522,12.967a2.129,2.129,0,0,0-.561,1.839l2.98,17.96a2.09,2.09,0,0,1-2.884,2.3l-15.831-8.012a1.935,1.935,0,0,0-1.935,0l-16.257,9.309a1.935,1.935,0,0,1-3.038-2.129l3.135-18.676a2.052,2.052,0,0,0-.6-1.935L103.74,280.558a2.148,2.148,0,0,1,1.2-3.658l18.5-2.884a2.148,2.148,0,0,0,1.568-1.161l8.09-16.76a1.935,1.935,0,0,1,3.735.155Z" transform="translate(204.995 2967.893)" fill="url(#linear-gradient-7)"/>
        <path id="Trazado_206714" data-name="Trazado 206714" d="M168.178,256.28l7.2,15.792a1.935,1.935,0,0,0,1.374,1.064l15.754,2.361a1.935,1.935,0,0,1,.968,3.309l-11.341,12.328a2.071,2.071,0,0,0-.5,1.761L184.319,310a1.935,1.935,0,0,1-2.613,2.168l-14.321-7.645a1.722,1.722,0,0,0-1.722,0l-14.689,8.825a1.935,1.935,0,0,1-2.748-2.032l2.845-17.747a2.051,2.051,0,0,0-.542-1.761l-12.251-12.289a2.09,2.09,0,0,1,1.084-3.484l16.7-2.729a1.935,1.935,0,0,0,1.413-1.122l7.316-15.928a1.8,1.8,0,0,1,3.387.019Z" transform="translate(237.362 2968.211)" fill="url(#linear-gradient-8)"/>
        <path id="Trazado_206715" data-name="Trazado 206715" d="M196.717,256.381l6.541,15.037a1.626,1.626,0,0,0,1.239,1.026l14.341,2.264a1.935,1.935,0,0,1,.89,3.155L209.393,289.63a2.032,2.032,0,0,0-.465,1.664l2.458,16.334c.232,1.51-1.181,2.729-2.38,2.051l-13.025-7.316a1.49,1.49,0,0,0-1.548,0l-13.373,8.458a1.7,1.7,0,0,1-2.5-1.935l2.593-16.9a1.936,1.936,0,0,0-.5-1.684L169.622,278.54a1.935,1.935,0,0,1,.968-3.329l15.173-2.593a1.684,1.684,0,0,0,1.277-1.064l6.658-15.173a1.606,1.606,0,0,1,3.019,0Z" transform="translate(266.632 2968.439)" fill="url(#linear-gradient-9)"/>
        <path id="Trazado_206716" data-name="Trazado 206716" d="M222.7,256.5l5.98,14.379a1.509,1.509,0,0,0,1.142.968l13.1,2.168a1.935,1.935,0,0,1,.813,3.019L234.3,288.275a2.09,2.09,0,0,0-.426,1.587l2.245,15.618c.213,1.452-1.064,2.632-2.168,1.935l-11.9-7.006a1.316,1.316,0,0,0-1.432,0L208.442,308.4c-1.161.755-2.5-.348-2.284-1.935l2.361-16.141a1.935,1.935,0,0,0-.445-1.606L198.01,277.476a1.935,1.935,0,0,1,.871-3.174l13.838-2.458a1.684,1.684,0,0,0,1.181-1.026l6.058-14.321a1.432,1.432,0,0,1,2.748,0Z" transform="translate(293.284 2968.575)" fill="#d8dce6"/>
        <g id="Grupo_160006" data-name="Grupo 160006" transform="translate(198.557 3195.703)" opacity="0.1">
          <path id="Trazado_206717" data-name="Trazado 206717" d="M344.657,300.269C306.2,290.437,280,342.749,233.917,332.221c-40.642-9.29-41.842-52.989-91.173-84.013q-5.148-3.251-10.47-6L77.91,240.835c-17.166-.426-31.41,12.522-31.41,28.933v62.221c0,16.412,14.244,28.894,31.41,27.869L385.782,341.8C371.887,313.448,357.12,303.443,344.657,300.269Z" transform="translate(-46.5 -240.825)" fill="#99a3b4"/>
        </g>
        <path id="Trazado_206718" data-name="Trazado 206718" d="M102.048,255.924l8.825,17.418a2.167,2.167,0,0,0,1.684,1.181l19.353,2.613a2.148,2.148,0,0,1,1.2,3.658l-13.9,13.663a2.187,2.187,0,0,0-.619,1.935l3.329,18.908a2.284,2.284,0,0,1-3.193,2.419L101.158,309.3a2.322,2.322,0,0,0-2.109,0l-18.1,9.851a2.245,2.245,0,0,1-3.387-2.226l3.5-19.721a2.09,2.09,0,0,0-.658-1.935l-15-13.683a2.245,2.245,0,0,1,1.316-3.871l20.592-3.058a2.322,2.322,0,0,0,1.742-1.219l9-17.67a2.284,2.284,0,0,1,3.987.155Z" transform="translate(169.083 2967.832)" fill="url(#linear-gradient-10)"/>
        <path id="Trazado_206719" data-name="Trazado 206719" d="M171.28,249.664a9.367,9.367,0,0,0,1.529-4.819c.116-4.451-3.193-7.935-3.638-7.741s0,1.413.232,1.935c.348,1.2.735,1.316.7,1.935,0,1.122-1.7,1.181-2.574,2.69a4.084,4.084,0,0,0,0,3.871A4.664,4.664,0,0,0,171.28,249.664Z" transform="translate(264.799 2951.391)" fill="url(#linear-gradient-11)"/>
        <path id="Trazado_206720" data-name="Trazado 206720" d="M206.318,298.2l-1.258-4.354,5.3-3.948,3.309-1.219-1.955,6.116Z" transform="translate(300.362 2999.639)" fill="url(#linear-gradient-12)"/>
        <path id="Trazado_206721" data-name="Trazado 206721" d="M202.32,339.437s2.9,7.3,2.148,10.548a34.521,34.521,0,0,0,5.129-.464,35.9,35.9,0,0,1-1.509-4.974,48.047,48.047,0,0,1-.29-5.806Z" transform="translate(297.799 3046.461)" fill="url(#linear-gradient-13)"/>
        <path id="Trazado_206722" data-name="Trazado 206722" d="M190.252,347.939a2.342,2.342,0,0,1,.542,1.355,1.935,1.935,0,0,1-.174.89c-.484,1.3-1.258,1.471-2.11,2.864-.5.832-.406,1.084-.871,1.471a3.154,3.154,0,0,1-1.935.542,39.324,39.324,0,0,1-4.664-.271c1.045-1.335,2.148-2.709,3.329-4.083.5-.6,1.026-1.181,1.548-1.761l3.058-1.045Z" transform="translate(277.896 3055.028)" fill="#2a2a4f"/>
        <path id="Trazado_206723" data-name="Trazado 206723" d="M187.249,340.24s-1.742,9.135.484,11.612c1.935,2.555-.929.735-.929.735l-3.348,2.942-1.935,3.464s1.935-8.922,1.355-12.483-.735-5.922-.735-5.922Z" transform="translate(278.345 3047.864)" fill="url(#linear-gradient-14)"/>
        <path id="Trazado_206724" data-name="Trazado 206724" d="M183.343,289.514s-4.7,4.2-4.7,21.521,2.226,54.925,2.226,54.925l3.561,26.92a23.709,23.709,0,0,0,6.174-.6c2.226-10.141,5.806-27.307,4.122-41.668-.735-15.483,6.193-35.126,6.193-35.126s5.941,19.8,10.141,29.688,12.212,40.913,12.967,43.138a12.018,12.018,0,0,0,7.006-.871s-3.155-33.365-6.116-45.983-2.729-43.042-7.741-51.712C206.1,285.295,183.343,289.514,183.343,289.514Z" transform="translate(275.651 2998.728)" fill="url(#linear-gradient-15)"/>
        <path id="Trazado_206725" data-name="Trazado 206725" d="M183.343,289.514s-4.7,4.2-4.7,21.521,2.226,54.925,2.226,54.925l3.561,26.92a23.709,23.709,0,0,0,6.174-.6c2.226-10.141,5.806-27.307,4.122-41.668-.735-15.483,6.193-35.126,6.193-35.126s5.941,19.8,10.141,29.688,12.212,40.913,12.967,43.138a12.018,12.018,0,0,0,7.006-.871s-3.155-33.365-6.116-45.983-2.729-43.042-7.741-51.712C206.1,285.295,183.343,289.514,183.343,289.514Z" transform="translate(275.651 2998.728)" fill="#fdb74d"/>
        <path id="Trazado_206726" data-name="Trazado 206726" d="M207.8,321.176c1.471,9.541,4.393,14.67,11.728,21.289,5.806,4.393,1.471,13.915,3.658,21.289.735,2.206,2.942,4.393,3.677,6.6,2.729,5.458.174,12.115,1.413,17.9a7.738,7.738,0,0,0,2.787-.813s-3.155-33.365-6.116-45.983-2.729-43.042-7.741-51.712c-11.147-4.451-33.907-.232-33.907-.232s-4.7,4.2-4.7,21.521v4.587a17.8,17.8,0,0,0,21.018.484,3.038,3.038,0,0,1,1.181-.523v-.1h0C203.779,315.06,207.165,318.7,207.8,321.176Z" transform="translate(275.613 2998.727)" opacity="0.25" fill="url(#linear-gradient-16)"/>
        <path id="Trazado_206727" data-name="Trazado 206727" d="M203.32,346s-.716,0-.658.929-.329,4.142,3.348,4.3a11.206,11.206,0,0,0,4.354-.252,26.725,26.725,0,0,0-.948-3.077l-1.181-1.51-3.174-.329Z" transform="translate(298.116 3053.252)" fill="#2a2a4f"/>
        <path id="Trazado_206728" data-name="Trazado 206728" d="M211.44,351.812a11.4,11.4,0,0,0-.948-2.98c-.639-1.451-.116-1.935-.735-3.329a4.16,4.16,0,0,0-.871-1.335,3.871,3.871,0,0,0-2.593-.987,2.864,2.864,0,0,0-1.219.29,2.729,2.729,0,0,0-1.1,1.161,13.548,13.548,0,0,0-.89,2.632,7.445,7.445,0,0,0-.232.89,1.845,1.845,0,0,1-.1.793,16.992,16.992,0,0,1,5.458.735,3.077,3.077,0,0,1,1.181,2.5c0,.968.484,1.413.948,1.393a1.587,1.587,0,0,0,1.1-1.761Z" transform="translate(298.202 3050.613)" fill="#484c88"/>
        <path id="Trazado_206729" data-name="Trazado 206729" d="M187.486,345.62c.832,0,1.432.677,1.935,2.264s2.651,2.98,0,2.651-4.413,3.29-5.341,4.645-3.367,2.535-3.309,1.219,1.142-1.935,1.452-3.271S185.589,345.581,187.486,345.62Z" transform="translate(277.643 3052.896)" fill="#484c88"/>
        <path id="Trazado_206730" data-name="Trazado 206730" d="M222.132,318.518c.6-1.7,4.413-12.812-1.722-22.953a27.385,27.385,0,0,0-14.979-11.38c-7.548-2.226-11.322.639-13.7-1.935-4.045-4.471.523-19.721,9.386-22.76,9.986-3.445,21.966,9.773,26.8,18.463a40.081,40.081,0,0,1,4.432,25,39.113,39.113,0,0,1-4.819,13.547Z" transform="translate(286.502 2971.813)" fill="url(#linear-gradient-17)"/>
        <path id="Trazado_206731" data-name="Trazado 206731" d="M209.282,258.13c-8.922-.348-15.792-.213-19.663,3.677s0,8.728-.852,19.353c-1.374,16.412-11.825,20.437-12.618,37.081a42.811,42.811,0,0,0,1.432,12.947,44.823,44.823,0,0,0,11.612,10.277c8.07,4.9,12.754,4.045,24.327,7.219,18.947,5.187,20.65,11.36,30.036,9.793s17.824-9.58,16.818-13.973c-.6-2.632-4.432-1.935-8.825-5.9-5.69-5.167-3.5-10.083-7.741-15.637-6.193-7.974-14.844-3.1-20.127-10.025s-3.232-20.766,1.277-28.275c2.942-4.9,4.2-10.644,6.716-15.792a3.426,3.426,0,0,0,.329-1.935c-.406-3.367-5.98-5.167-10.219-6.5A51.268,51.268,0,0,0,209.282,258.13Z" transform="translate(273.284 2970.947)" fill="#8c6df2"/>
        <path id="Trazado_206732" data-name="Trazado 206732" d="M189.37,258.142l1.761-.542s.464,2.38,6.116,2.69a8.36,8.36,0,0,0,5.148-1.761l1.2.871a9.232,9.232,0,0,1-6.812,3.213,8.419,8.419,0,0,1-7.412-4.471Z" transform="translate(285.687 2970.568)" fill="url(#linear-gradient-18)"/>
        <path id="Trazado_206733" data-name="Trazado 206733" d="M192.137,257.3a7.548,7.548,0,0,1,2.845-4.645c1.935-1.49,2.284-1.645,2.922-1.761l.89-.135h.1a9.387,9.387,0,0,1,2.361.832c.89.639.232,5.129-2.5,10.722-.116.464-.213.948-.329,1.413,2.38.426,2.98.852,3,1.2,0,.735-2.574,1.684-4.993,1.742-3.038,0-6.251-1.219-6.193-2.187,0-.406.6-.89,2.806-1.374l1.026-1.451A6.581,6.581,0,0,1,192.137,257.3Z" transform="translate(286.5 2964.171)" fill="url(#linear-gradient-19)"/>
        <path id="Trazado_206734" data-name="Trazado 206734" d="M193.847,253.693c.677-.426,1.2.465.89,1.239a1.548,1.548,0,0,1-2.09.793C191.989,255.261,192.918,254.235,193.847,253.693Z" transform="translate(288.545 2966.812)" fill="url(#linear-gradient-20)"/>
        <path id="Trazado_206735" data-name="Trazado 206735" d="M283.828,257.569c-9.057-9.831-30.133-7.141-41.822.755-5.438,3.677-8.225,8.012-14.631,8.361-4.877.29-12.638-1.548-16.741-6.832-.5-.677-2.574-3.464-5.651-6.987a8.361,8.361,0,0,0-4.838-3.329,3.987,3.987,0,0,0-3.484.774,4.064,4.064,0,0,0-.89,3.7c.155.7.387.774.348,1.239,0,1.277-2.419,1.839-2.284,2.477s1.3.29,1.51.871-1.1,1.181-1.684,2.768a6.793,6.793,0,0,0-1.935,4.916,21.483,21.483,0,0,0,.677,8.516c3.193,10.373,5.5,17.786,11.051,21.927,7.354,5.477,13.992.426,32.707-.368,25.624-1.1,32.01,7.586,41.222,1.645C288.84,290.567,293.234,267.768,283.828,257.569Z" transform="translate(287.744 2962.916)" fill="url(#linear-gradient-21)"/>
        <path id="Trazado_206736" data-name="Trazado 206736" d="M173.262,243.459a25.662,25.662,0,0,0,21.927,28.856c7.741,1.181,11.128-2.168,13.857.116,4.606,3.871,2.168,19.6-6.193,23.843-9.425,4.761-23.088-6.7-29.03-14.65a39.868,39.868,0,0,1-7.741-24.211,38.707,38.707,0,0,1,2.942-14.07,6.7,6.7,0,0,1,2.245-.29,7.26,7.26,0,0,1,1.993.406Z" transform="translate(263.901 2956.957)" fill="#8c6df2"/>
        <path id="Trazado_206737" data-name="Trazado 206737" d="M243.78,332.685c-2.284-2.342.232-7.064-3.135-10.548s-6.658-.639-11.612-3.426c-6.464-3.6-4.683-10.16-10.838-13.683-4.432-2.555-6.522.174-13.412-1.142a27.869,27.869,0,0,1-19.353-14.554,24.83,24.83,0,0,1-2.5-10.373c-3.1,5.535-6.309,10.818-6.735,19.76a42.809,42.809,0,0,0,1.432,12.947,44.821,44.821,0,0,0,11.612,10.277c8.07,4.9,12.754,4.045,24.327,7.219,18.947,5.187,20.65,11.36,30.036,9.793a25.43,25.43,0,0,0,14.631-8.283C249.393,334.562,245.522,334.368,243.78,332.685Z" transform="translate(273.331 2990.547)" opacity="0.25" fill="url(#linear-gradient-22)"/>
        <path id="Trazado_206738" data-name="Trazado 206738" d="M107.271,201.86h2.09l40.352,28.6a48.383,48.383,0,0,0-9.87,29.649l-53.2-.793a90.457,90.457,0,0,1,20.631-57.46Z" transform="translate(189.601 2918.434)" fill="url(#linear-gradient-23)"/>
        <path id="Trazado_206739" data-name="Trazado 206739" d="M166.908,227.4c-9.522,2.864-16.644,8.67-23.224,15.483,0,0,0,.194-.155.194a11.744,11.744,0,0,1-2.071,0h0L99.23,214.514a102.67,102.67,0,0,1,52.834-30.694h2.09Z" transform="translate(201.376 2901.561)" fill="url(#linear-gradient-24)"/>
        <path id="Trazado_206740" data-name="Trazado 206740" d="M189.745,189.17,178,229.541a63.866,63.866,0,0,0-16.8-3.522,77.1,77.1,0,0,0-16.876,1.935L129.44,184.119a114.377,114.377,0,0,1,60.3,5.09Z" transform="translate(229.633 2900.042)" fill="url(#linear-gradient-25)"/>
        <path id="Trazado_206741" data-name="Trazado 206741" d="M213.31,220.587,179.519,242.36l.31,1.161h-2.09a59.221,59.221,0,0,0-21.6-16.315l13.76-40.332a19.11,19.11,0,0,1,2.09,0h0a106.269,106.269,0,0,1,41.319,33.713Z" transform="translate(254.606 2904.39)" fill="url(#linear-gradient-26)"/>
        <path id="Trazado_206742" data-name="Trazado 206742" d="M220.293,258.027l-42.809-.6a49.467,49.467,0,0,0-8.573-28.043l35.416-22.914h2.09c.29,0-1.2,1.335-1.006,1.645a91.289,91.289,0,0,1,14.883,49.912Z" transform="translate(266.55 2922.745)" fill="url(#linear-gradient-27)"/>
        <path id="Trazado_206743" data-name="Trazado 206743" d="M141.51,244.163l56.705-40.893-40.274,55.1Z" transform="translate(240.922 2919.752)" fill="url(#linear-gradient-28)"/>
        <path id="Trazado_206744" data-name="Trazado 206744" d="M167.057,236.523a14.147,14.147,0,0,1-14.863,13.547c-8.322,0-15.154-6.387-15.154-14.108s6.832-13.818,15.154-13.547S167.057,228.956,167.057,236.523Z" transform="translate(236.741 2937.65)" fill="url(#linear-gradient-29)"/>
        <path id="Trazado_206745" data-name="Trazado 206745" d="M149.3,242.047a9,9,0,0,1-9.173-8.573,8.612,8.612,0,0,1,9.173-8.245,8.961,8.961,0,0,1,9.057,8.574,8.593,8.593,0,0,1-9.057,8.244Zm0-15.192a6.967,6.967,0,0,0-7.374,6.658,7.219,7.219,0,0,0,7.374,6.89,6.909,6.909,0,0,0,7.3-6.638,7.238,7.238,0,0,0-7.3-6.909Z" transform="translate(239.631 2940.273)" fill="url(#linear-gradient-30)"/>
        <path id="Trazado_206746" data-name="Trazado 206746" d="M108.36,201.92,150.8,230.466a48.383,48.383,0,0,0-9.87,29.611l-53.222-.735a89.935,89.935,0,0,1,20.65-57.421Z" transform="translate(190.601 2918.489)" fill="url(#linear-gradient-31)"/>
        <path id="Trazado_206747" data-name="Trazado 206747" d="M168,227.412a56.763,56.763,0,0,0-25.45,15.676L100.3,214.523a104.9,104.9,0,0,1,52.854-30.733Z" transform="translate(202.377 2901.532)" fill="url(#linear-gradient-32)"/>
        <path id="Trazado_206748" data-name="Trazado 206748" d="M190.825,189.188l-13.838,40.371a62.164,62.164,0,0,0-16.605-3.1,63.036,63.036,0,0,0-15.134,1.084L130.52,184.1a114.378,114.378,0,0,1,60.3,5.09Z" transform="translate(230.643 2900.023)" fill="url(#linear-gradient-33)"/>
        <path id="Trazado_206749" data-name="Trazado 206749" d="M214.4,220.583l-35.571,22.895a57.847,57.847,0,0,0-21.618-16.3l13.78-40.332A106.191,106.191,0,0,1,214.4,220.583Z" transform="translate(255.607 2904.395)" fill="url(#linear-gradient-34)"/>
        <path id="Trazado_206750" data-name="Trazado 206750" d="M221.364,258.027l-42.809-.6A49.467,49.467,0,0,0,170,229.384l35.416-22.914a91.58,91.58,0,0,1,15.947,51.557Z" transform="translate(267.57 2922.745)" fill="url(#linear-gradient-35)"/>
        <path id="Trazado_206751" data-name="Trazado 206751" d="M142.59,244.163l56.686-40.893-40.255,55.1Z" transform="translate(241.932 2919.752)" fill="url(#linear-gradient-36)"/>
        <path id="Trazado_206752" data-name="Trazado 206752" d="M168.118,236.523a14.128,14.128,0,0,1-14.844,13.547c-8.341,0-15.154-6.387-15.154-14.109s6.812-13.818,15.154-13.547S168.118,228.956,168.118,236.523Z" transform="translate(237.751 2937.65)" fill="url(#linear-gradient-37)"/>
        <path id="Trazado_206753" data-name="Trazado 206753" d="M150.433,242.048a8.98,8.98,0,0,1-9.173-8.573,8.593,8.593,0,0,1,9.173-8.245,8.961,8.961,0,0,1,9.057,8.573,8.593,8.593,0,0,1-9.057,8.245Zm0-15.192a6.948,6.948,0,0,0-7.374,6.658,7.2,7.2,0,0,0,7.374,6.89,6.929,6.929,0,0,0,7.3-6.638,7.238,7.238,0,0,0-7.3-6.909Z" transform="translate(240.688 2940.273)" fill="#d8dce6"/>
      </g>
    </g>
    <path id="Trazado_207891" data-name="Trazado 207891" d="M282.5,468.674H234.753c-.735-.406-1.471-.813-2.226-1.161a.774.774,0,0,0-.658,0c-.755.348-1.49.755-2.226,1.161H181.88a1.3,1.3,0,0,0-.348-.213A5.341,5.341,0,0,1,177.661,463V418.027a15.015,15.015,0,0,1,.968-3.406,1.413,1.413,0,0,0,0-1.006,6.29,6.29,0,0,1-1.045-3.716V365.386a5.419,5.419,0,0,1,5.961-5.941h44.513a6.348,6.348,0,0,1,3.716,1.064,1.026,1.026,0,0,0,.89,0,6.5,6.5,0,0,1,3.871-1.084h44.648a5.264,5.264,0,0,1,4.722,2.555c.329.542.561,1.142.832,1.7v47.764c-.406.735-.813,1.471-1.161,2.226a.774.774,0,0,0,0,.658c.348.755.755,1.49,1.161,2.226V464.32A6.484,6.484,0,0,1,282.5,468.674ZM233.9,415.84v18a3.5,3.5,0,0,1-3.755,3.871h-2.555a5.477,5.477,0,0,1-4.645-1.819,6.328,6.328,0,0,0-9,.1,6.464,6.464,0,0,0,0,9.1,6.367,6.367,0,0,0,9.019.174,5.632,5.632,0,0,1,4.838-1.935h1.935a3.638,3.638,0,0,1,4.142,4.122v15.134c0,1.935.639,2.651,2.709,2.651H280.6c2.129,0,2.729-.6,2.729-2.729V418.491c0-2.051-.619-2.69-2.651-2.709H264.848v2.709a2.9,2.9,0,0,0,.948,2.439,9.851,9.851,0,0,1-9.464,16.354,9.445,9.445,0,0,1-7.238-6.948,9.676,9.676,0,0,1,2.632-9.793c.252-.232.581-.542.6-.832V415.84ZM230.5,446.805h-2.477a3.444,3.444,0,0,0-2.9,1.1,9.773,9.773,0,0,1-11.012,1.548,9.907,9.907,0,1,1,11.631-15.676c.213.213.484.5.755.5h3.871V415.821H212.4a3.522,3.522,0,0,1-3.871-3.735v-2.342a5.806,5.806,0,0,1,1.935-4.935,6.387,6.387,0,0,0-.213-9.019,6.483,6.483,0,0,0-9.038,0,6.309,6.309,0,0,0-.116,9.057,5.438,5.438,0,0,1,1.8,4.567c0,.736,0,1.49,0,2.245a3.619,3.619,0,0,1-4.1,4.122H183.448c-1.722,0-2.438.7-2.438,2.361V462.81c0,1.684.716,2.4,2.4,2.419h44.338c2.051,0,2.69-.619,2.709-2.651V446.747Zm3.464-34.391h18a3.5,3.5,0,0,1,3.774,3.619c0,.91,0,1.935,0,2.768a5.419,5.419,0,0,1-1.819,4.548,6.328,6.328,0,0,0,0,9,6.445,6.445,0,0,0,9.019.155,6.29,6.29,0,0,0,.348-8.98,6.135,6.135,0,0,1-1.935-5.245c0-.6,0-1.2,0-1.819a3.6,3.6,0,0,1,4.084-4.045h15.134c1.935,0,2.671-.639,2.671-2.671V365.56c0-1.935-.658-2.651-2.593-2.651H236.476c-1.935,0-2.632.658-2.632,2.632v15.85h2.709a2.941,2.941,0,0,0,2.439-.948,9.889,9.889,0,1,1-.348,14.07,1.935,1.935,0,0,0-.929-.6h-3.871Zm-3.464,0v-17.96a3.522,3.522,0,0,1,3.871-3.871h3.193a4.47,4.47,0,0,1,3.58,1.529,6.467,6.467,0,1,0,7.645-10.16,6.193,6.193,0,0,0-7.045.948,6.077,6.077,0,0,1-5.419,2.032,16.65,16.65,0,0,0-1.7,0,3.6,3.6,0,0,1-4.064-4.083c0-5.071,0-10.16,0-15.231,0-1.935-.658-2.593-2.555-2.593H183.583c-1.935,0-2.555.7-2.555,2.593V409.86c0,1.935.658,2.632,2.632,2.632h15.85V409.57a2.535,2.535,0,0,0-.871-2.129,9.5,9.5,0,0,1-2.593-8.825,9.915,9.915,0,1,1,16.663,9.057c-.213.232-.581.484-.581.735v4.1Z" transform="translate(662.809 4201.441) rotate(-90)" fill="#12263f"/>
    <path id="Trazado_207892" data-name="Trazado 207892" d="M321.868,385.459a12.638,12.638,0,0,1-6.077-4.006c-4.025-4.122-8.128-8.167-12.212-12.231-.29-.31-.619-.6-.948-.929a18.56,18.56,0,1,1-22.566-22.547l-.91-.968-13.412-13.392a8.225,8.225,0,0,1,0-12.58l20.785-20.766c1.761-1.781,2.709-1.781,4.509,0a6.945,6.945,0,0,0,.755.755,4.509,4.509,0,0,1,1.7,4.625,10.973,10.973,0,1,0,9.541-10.1,3.619,3.619,0,0,1-3.6-1.316,15.644,15.644,0,0,0-1.258-1.277c-1.684-1.684-1.7-2.671,0-4.335L313.1,271.468l6.019-6.019a8.206,8.206,0,0,1,12.406,0l13.392,13.393a16.089,16.089,0,0,1,.987,1.335,18.85,18.85,0,0,1,8.438-11.612,18.076,18.076,0,0,1,13.721-2.226,18.521,18.521,0,0,1,.426,36c.329.368.581.658.871.948,4.064,4.083,8.109,8.186,12.231,12.212a12.869,12.869,0,0,1,4.083,6.154V324.3a10.974,10.974,0,0,1-3.29,5.419c-2.9,2.806-5.709,5.709-8.573,8.554l-12.135,12.173a2.342,2.342,0,0,1-3.871,0,20.95,20.95,0,0,0-1.626-1.587,3.658,3.658,0,0,1-1.258-3.522,10.9,10.9,0,0,0-11.786-12.367,11.012,11.012,0,0,0-10.044,11.96,10.838,10.838,0,0,0,11.419,9.928,5.225,5.225,0,0,1,5.3,2.051,6.426,6.426,0,0,0,.5.523c1.664,1.664,1.664,2.651,0,4.335-6.638,6.638-13.3,13.257-19.9,19.934a12.251,12.251,0,0,1-5.942,3.871Zm-32.9-83.219c-.31.271-.484.368-.619.5l-19.663,19.682a3.6,3.6,0,0,0,0,5.419c3.658,3.7,7.335,7.354,11.012,11.031l6.87,6.87a2.245,2.245,0,0,1,.639,2.613,2.206,2.206,0,0,1-2.264,1.432,19.693,19.693,0,0,0-2.148.155,13.934,13.934,0,1,0,13.721,21.134,14.806,14.806,0,0,0,2.09-7.645c0-1.393.813-2.458,1.935-2.361a3.871,3.871,0,0,1,2.264,1.045c5.806,5.806,11.612,11.5,17.418,17.263a3.754,3.754,0,0,0,6.1,0l19-18.986.968-1.1a15.792,15.792,0,0,1-8.825-1.355,15.616,15.616,0,0,1,5.109-29.61,15.057,15.057,0,0,1,10.915,3.058,15.7,15.7,0,0,1,6.135,14.5l.987-.852,19.063-19.082a3.755,3.755,0,0,0,0-6.038l-17.128-17.128c-.271-.271-.7-.542-.774-.871a3.677,3.677,0,0,1-.252-2.226,3.367,3.367,0,0,1,1.935-1.355,11.752,11.752,0,0,1,2.284-.135,13.924,13.924,0,1,0-15.812-13.683,2.38,2.38,0,0,1-1.471,2.5,2.477,2.477,0,0,1-2.787-.89l-17.534-17.553a3.658,3.658,0,0,0-5.69,0L303.1,287.919c-.232.232-.406.5-.716.89a15.618,15.618,0,1,1,3.29,30.965,15.87,15.87,0,0,1-16.779-17.553Z" transform="translate(589.1 4144.999) rotate(-90)" fill="#12263f"/>
    <g id="Grupo_160391" data-name="Grupo 160391" transform="translate(14.208 747.238)">
      <path id="Trazado_206759" data-name="Trazado 206759" d="M263.5,179.6a3.387,3.387,0,0,1,3.368-1.7h18.54a6.774,6.774,0,0,1,1.413,0,2.342,2.342,0,0,1,0,4.587,6.774,6.774,0,0,1-1.413,0h-18.54a3.387,3.387,0,0,1-3.367-1.7Z" transform="translate(355.023 2895.986)" fill="#12263f"/>
      <path id="Trazado_206760" data-name="Trazado 206760" d="M352.214,225.22h2.69a7.161,7.161,0,0,1,7.238,7.277v8.922c0,1.935-.91,2.845-2.864,2.845H275.091c-2.768,0-3.464-.716-3.464-3.464v-7.974a7.2,7.2,0,0,1,7.625-7.625h2.361c.561-3.155,1.122-6.27,1.684-9.367,2.051-11.515,4.025-23.05,6.212-34.526A16.334,16.334,0,0,1,305.63,168.05H327.79a16.76,16.76,0,0,1,16.741,14.3c2.439,13.992,4.974,27.965,7.451,41.939C352.039,224.562,352.117,224.833,352.214,225.22Zm-4.954,0a7.393,7.393,0,0,0-.174-1.374q-3.58-19.953-7.122-39.906c-1.3-7.3-5.806-11.07-13.141-11.07H306.095A11.9,11.9,0,0,0,294,183.03q-2.729,15.154-5.419,30.327c-.716,3.871-1.393,7.857-2.109,11.864Zm10.122,14.3v-5.941c0-2.845-.677-3.542-3.484-3.542H279.852a9.873,9.873,0,0,0-1.316,0c-1.084.174-1.935.774-1.935,1.935-.116,2.516,0,5.032,0,7.567Z" transform="translate(362.611 2886.81)" fill="#12263f"/>
      <path id="Trazado_206761" data-name="Trazado 206761" d="M326.1,182.653h-9.89c-1.935,0-3.193-1.548-2.555-3.174a2.342,2.342,0,0,1,2.322-1.568h20.244a2.381,2.381,0,0,1,2.477,2.38,2.419,2.419,0,0,1-2.593,2.361C332.753,182.672,329.424,182.653,326.1,182.653Z" transform="translate(401.774 2896.031)" fill="#12263f"/>
      <path id="Trazado_206762" data-name="Trazado 206762" d="M291.055,172.269a2.439,2.439,0,0,1-3.445,2.516,4.627,4.627,0,0,1-1.026-.813c-4.2-4.2-8.419-8.38-12.6-12.638a3.31,3.31,0,0,1-1.045-1.935,2.748,2.748,0,0,1,1.1-1.935,3.755,3.755,0,0,1,2.322-.1c.368,0,.7.484,1.006.794q6.27,6.232,12.522,12.522A10.74,10.74,0,0,1,291.055,172.269Z" transform="translate(363.852 2876.688)" fill="#12263f"/>
      <path id="Trazado_206763" data-name="Trazado 206763" d="M310.461,175.184A2.419,2.419,0,0,1,308,171.7a5.3,5.3,0,0,1,.89-1.1c4.142-4.142,8.264-8.322,12.464-12.405a4.065,4.065,0,0,1,2.342-1.142,2.264,2.264,0,0,1,1.838,3.464,5.417,5.417,0,0,1-.91,1.084c-4.1,4.122-8.225,8.264-12.367,12.347A9.44,9.44,0,0,1,310.461,175.184Z" transform="translate(396.409 2876.521)" fill="#12263f"/>
      <path id="Trazado_206764" data-name="Trazado 206764" d="M298.533,160.206v9.173c0,1.935-1.548,3.174-3.193,2.535a2.322,2.322,0,0,1-1.548-2.322V150.781a2.361,2.361,0,1,1,4.722,0v9.406Z" transform="translate(383.352 2868.449)" fill="#12263f"/>
      <path id="Trazado_206765" data-name="Trazado 206765" d="M311.459,203.988a2.458,2.458,0,0,1-1.935,2.651,2.361,2.361,0,0,1-2.651-1.935c-.581-2.748-1.045-5.535-1.548-8.3-.619-3.387-1.258-6.774-1.819-10.18a4.393,4.393,0,0,1,.116-2.071,2.051,2.051,0,0,1,2.168-1.355,2.129,2.129,0,0,1,2.148,1.723c.426,1.935.755,3.735,1.1,5.593.813,4.374,1.587,8.748,2.38,13.1A7.552,7.552,0,0,0,311.459,203.988Z" transform="translate(392.373 2900.59)" fill="#12263f"/>
      <path id="Trazado_206766" data-name="Trazado 206766" d="M304.761,177.9a2.38,2.38,0,1,1-2.361,2.38A2.458,2.458,0,0,1,304.761,177.9Z" transform="translate(391.407 2896.022)" fill="#12263f"/>
    </g>
    <g id="Grupo_160392" data-name="Grupo 160392" transform="translate(4.658 1075.215)">
      <path id="Trazado_206755" data-name="Trazado 206755" d="M281.589,108.482c-.329,6.619-.213,13.315-1.122,19.856a69.672,69.672,0,0,1-28.643,47.88c-4.354,3.251-8.864,6.29-13.373,9.309a11.38,11.38,0,0,1-13.276.368c-5.806-3.735-11.225-7.741-16.8-11.805-1.51-1.064-1.781-2.458-.929-3.6s2.226-1.219,3.871,0c5.283,3.755,10.548,7.509,15.87,11.206a6.658,6.658,0,0,0,7.741.464c8.225-5.535,16.818-10.625,23.592-18.037a66.5,66.5,0,0,0,18.057-45.964q0-11.844,0-23.688a6.928,6.928,0,0,0-4.374-6.909Q254.03,78.91,235.954,70.143a9.425,9.425,0,0,0-8.961,0q-18.057,8.883-36.249,17.418a6.987,6.987,0,0,0-4.393,7.045q0,11.844,0,23.669a66.323,66.323,0,0,0,16.237,43.874,7.253,7.253,0,0,1,.677.852,2.3,2.3,0,0,1-.29,3.348,2.342,2.342,0,0,1-3.348-.426c-2.09-2.613-4.238-5.187-6.077-7.974a70.871,70.871,0,0,1-11.922-39.926q0-11.931,0-23.843a11.031,11.031,0,0,1,6.812-10.857c12.231-5.806,24.482-11.747,36.655-17.708a13.683,13.683,0,0,1,12.773,0q17.941,8.767,35.978,17.418a11.767,11.767,0,0,1,7.47,11.9c-.135,4.548,0,9.1,0,13.547Z" transform="translate(278.429 2789.52)" fill="#12263f"/>
      <path id="Trazado_206756" data-name="Trazado 206756" d="M258.222,110.95a34.681,34.681,0,0,1-31.759,34.081,33.946,33.946,0,0,1-36.133-28.2c-2.168-13.1,2.245-23.94,12.347-32.475,1.684-1.413,3.135-1.432,4.084-.155s.542,2.4-1.142,3.871c-9.251,7.741-12.986,17.65-10.373,29.378s10.2,19.237,21.869,22.179a29.32,29.32,0,1,0-.523-56.957l-.929.213a2.361,2.361,0,1,1-1.2-4.548,34.081,34.081,0,0,1,42.016,23.224A88.572,88.572,0,0,1,258.222,110.95Z" transform="translate(286.081 2801.683)" fill="#12263f"/>
      <path id="Trazado_206757" data-name="Trazado 206757" d="M224.825,98.108h7.857a6.955,6.955,0,0,1,2.69,13.257,10.083,10.083,0,0,1-3.484.716c-2.284.116-4.587,0-7.122,0v7.857a7.045,7.045,0,0,1-14.07-.542c0-2.38,0-4.78,0-7.316h-6.87a7.083,7.083,0,1,1,0-14.128h6.89V90.5a7.064,7.064,0,0,1,9.367-6.716,6.89,6.89,0,0,1,4.742,6.58Zm-17.263,9.406h3.755a3.755,3.755,0,0,1,4.1,4.084v7.741c0,1.722.929,2.729,2.361,2.729s2.3-.948,2.322-2.709v-7.509a3.871,3.871,0,0,1,4.277-4.277h7.354c1.935,0,2.942-.89,2.942-2.322s-1.122-2.361-2.9-2.361h-7.354a3.871,3.871,0,0,1-4.316-4.258c0-2.458,0-4.916,0-7.354,0-1.935-.832-2.9-2.322-2.9s-2.361,1.026-2.38,2.864v7.354a3.871,3.871,0,0,1-4.374,4.3h-7.509a2.292,2.292,0,1,0,.019,4.548c1.335.039,2.69.019,4.045.019Z" transform="translate(292.094 2807.635)" fill="#12263f"/>
    </g>
  </g>
</svg>
