<svg xmlns="http://www.w3.org/2000/svg" width="109" height="109" viewBox="0 0 109 109">
  <g id="Grupo_160393" data-name="Grupo 160393" transform="translate(-285 -1777.999)">
    <g id="Grupo_160370" data-name="Grupo 160370" transform="translate(24.333 863.999)">
      <circle id="Elipse_4743" data-name="Elipse 4743" cx="54.5" cy="54.5" r="54.5" transform="translate(260.667 914)" fill="#8c6df2"/>
    </g>
    <g id="VERDE-01" transform="translate(298.126 1793.973)">
      <path id="Trazado_206030" data-name="Trazado 206030" d="M42.071,3.15a63.419,63.419,0,0,0,8.882,3.716A70.693,70.693,0,0,0,69.5,9.9a3.514,3.514,0,0,1,3.7,3.8V30.77a44.636,44.636,0,0,1-3.953,17.8A1.81,1.81,0,0,0,69.172,50a9.189,9.189,0,0,1-8.478,12.115,1.678,1.678,0,0,0-1.2.51A45.524,45.524,0,0,1,49.3,70.162c-1.9,1.037-3.813,2.038-5.7,3.1a4.182,4.182,0,0,1-4.445,0c-3.066-1.757-6.2-3.435-9.233-5.271a38.891,38.891,0,0,1-6.721-5.4,1.757,1.757,0,0,0-1-.439,9.224,9.224,0,0,1-9.066-8.557A18.958,18.958,0,0,1,13.6,49.86a2.267,2.267,0,0,0,0-1.089A46.148,46.148,0,0,1,9.54,29.8q0-8.029,0-16.033A3.509,3.509,0,0,1,13.256,9.9,65.641,65.641,0,0,0,35.877,5.373C37.511,4.7,39.084,3.9,40.692,3.15Zm-.7,56.628H59.887a9.382,9.382,0,0,0,1.889-.167,6.817,6.817,0,0,0,4.313-10.542Q56.768,34.82,47.342,20.588a7.028,7.028,0,0,0-11.921,0c-1.5,2.24-2.969,4.5-4.454,6.747Q23.833,38.158,16.7,48.946a6.694,6.694,0,0,0-1.1,5.447,6.931,6.931,0,0,0,7.028,5.376C28.885,59.787,35.131,59.778,41.368,59.778ZM64.209,41.909a36.475,36.475,0,0,0,1.9-10.779c.061-4.586,0-9.163,0-13.749v-.553c-1.616-.149-3.2-.255-4.77-.448a66.371,66.371,0,0,1-19.2-5.394,1.608,1.608,0,0,0-1.485,0,65.571,65.571,0,0,1-19.74,5.438c-1.406.167-2.82.281-4.278.413V29.189a38.654,38.654,0,0,0,.729,8.17c.307,1.485.712,2.952,1.116,4.6l.553-.808L33.312,19.49a9.4,9.4,0,0,1,16.12,0q5.851,8.846,11.684,17.693ZM15.268,46.82c.474-.7.878-1.291,1.239-1.845a1.133,1.133,0,0,0,.158-1.195,38.654,38.654,0,0,1-2.381-12.765c-.053-4.7,0-9.4,0-14.056A2.354,2.354,0,0,1,16.6,14.439c2.539-.264,5.087-.474,7.608-.878A61.794,61.794,0,0,0,40.235,8.6a2.635,2.635,0,0,1,2.267,0c.8.36,1.6.72,2.4,1.054a65.342,65.342,0,0,0,21.084,4.805c1.757.105,2.486,1,2.486,2.732V28.8A42.458,42.458,0,0,1,66,43.974a.8.8,0,0,0,0,.58c.439.729.931,1.441,1.441,2.205.1-.184.149-.264.184-.343A40.49,40.49,0,0,0,70.789,32.07c.141-6.149.061-12.3.07-18.448,0-.878-.4-1.283-1.291-1.362-3.031-.255-6.07-.413-9.075-.826a54.089,54.089,0,0,1-18.3-5.658,1.625,1.625,0,0,0-1.625,0c-1.485.729-2.969,1.467-4.507,2.082a67.969,67.969,0,0,1-22.586,4.392c-1.265.053-1.573.36-1.573,1.625V29.839A43.275,43.275,0,0,0,14.029,43.35C14.389,44.475,14.82,45.581,15.268,46.82ZM56.443,62.326l-.079-.184H53.078a1.045,1.045,0,0,0-.536.272,63.6,63.6,0,0,1-9.5,5.737,3.171,3.171,0,0,1-3.18.061c-3.022-1.757-6.088-3.382-8.934-5.35-1.555-1.072-3.031-.518-4.7-.782.184.22.22.281.272.325l1.151.993c3.936,3.356,8.583,5.508,13.037,7.977a1.66,1.66,0,0,0,1.37,0c3.567-2.012,7.133-4.024,10.63-6.149A38.821,38.821,0,0,0,56.443,62.326ZM34,62.176a5.27,5.27,0,0,0,.43.316c2.1,1.186,4.182,2.4,6.316,3.514a1.757,1.757,0,0,0,1.414-.079c1.757-.878,3.514-1.9,5.271-2.881.422-.237.817-.518,1.37-.878Z" fill="#fff"/>
      <path id="Trazado_206031" data-name="Trazado 206031" d="M48.836,37v8.636a3.545,3.545,0,0,1-7.028.931,6.668,6.668,0,0,1-.088-1.028V28.481a3.537,3.537,0,0,1,3.971-3.8,3.426,3.426,0,0,1,3.031,2.864,16.376,16.376,0,0,1,.088,2.275C48.836,32.214,48.836,34.621,48.836,37ZM44.1,37v8.284c0,1.177.4,1.757,1.186,1.757s1.186-.58,1.186-1.757V28.718a3.6,3.6,0,0,0,0-.756,1.116,1.116,0,0,0-1.309-.931c-.65.079-1,.553-1,1.414q-.061,4.287-.061,8.565Z" transform="translate(-3.91 -2.613)" fill="#fff"/>
      <path id="Trazado_206032" data-name="Trazado 206032" d="M45.344,55.53a3.514,3.514,0,1,1-2.53,1A3.514,3.514,0,0,1,45.344,55.53Zm1.116,3.514a1.168,1.168,0,1,0-1.168,1.168,1.168,1.168,0,0,0,1.168-1.168Z" transform="translate(-3.915 -6.364)" fill="#fff"/>
    </g>
  </g>
</svg>
