<svg xmlns="http://www.w3.org/2000/svg" width="109" height="109" viewBox="0 0 109 109">
  <g id="Grupo_160394" data-name="Grupo 160394" transform="translate(-285 -1889.999)">
    <g id="Grupo_160371" data-name="Grupo 160371" transform="translate(24.333 800.999)">
      <circle id="Elipse_4744" data-name="Elipse 4744" cx="54.5" cy="54.5" r="54.5" transform="translate(260.667 1089)" fill="#5038a1"/>
    </g>
    <g id="Capa_1-2" transform="translate(296.383 1901.47)">
      <g id="Grupo_130816" data-name="Grupo 130816" transform="translate(0.087)">
        <rect id="Rectángulo_41197" data-name="Rectángulo 41197" width="86.059" height="86.059" rx="43.029" fill="none"/>
        <g id="aMARILLO-01" transform="translate(13.714 6.821)">
          <path id="Trazado_206033" data-name="Trazado 206033" d="M79.387,43.035l-3.841,6.631c-.263.471-.525.906-.815,1.4a1.495,1.495,0,0,1-2.138.534c-.6-.326-1.178-.7-1.748-1.06a.906.906,0,0,0-1.105,0A18.116,18.116,0,0,1,67.8,51.686a.688.688,0,0,0-.453.761v2.12a1.495,1.495,0,0,1-1.649,1.6H58.362V61.9a1.594,1.594,0,0,1-1.812,1.812H8.919A1.585,1.585,0,0,1,7.107,61.9V5.269A1.549,1.549,0,0,1,8.919,3.457H44.14a2.781,2.781,0,0,1,2.174.906q5.625,5.725,11.342,11.36a2.174,2.174,0,0,1,.661,1.649v2.618h7.12c1.341,0,1.893.553,1.9,1.875v1.911a.67.67,0,0,0,.48.734,10.634,10.634,0,0,1,1.812,1,1.006,1.006,0,0,0,1.368,0,14.911,14.911,0,0,1,1.522-.906,1.522,1.522,0,0,1,2.319.625c1.458,2.5,2.89,5.01,4.339,7.51a2.8,2.8,0,0,0,.236.335V34.2a21.642,21.642,0,0,1-2.247,1.612c-.661.362-.978.734-.8,1.522a3.451,3.451,0,0,1,0,1.4,1.25,1.25,0,0,0,.788,1.5c.8.462,1.513,1.051,2.265,1.585ZM43.243,6.546H10.133V60.682H55.218V18.567H45.254c-1.477,0-2.011-.525-2.011-1.939ZM64.259,53.2a20.283,20.283,0,0,1,.163-2.518,1.712,1.712,0,0,1,.716-1.024c1.377-.842,2.808-1.6,4.2-2.419a1.4,1.4,0,0,1,1.522-.063c.652.371,1.3.725,1.993,1.105l3-5.173c-.707-.471-1.4-.906-2.074-1.377a1.223,1.223,0,0,1-.643-1.314,11.849,11.849,0,0,0,0-4.484,1.5,1.5,0,0,1,.906-1.64l1.812-1.087L72.847,28a15.748,15.748,0,0,0-1.54.906,1.893,1.893,0,0,1-2.491-.127,19.658,19.658,0,0,0-3.225-1.812,1.893,1.893,0,0,1-1.3-1.875v-1.9H58.362v8.026c3.479-1.169,6.5-.553,8.823,2.292a6.9,6.9,0,0,1,.852,8c-2.084,3.95-5.5,4.928-9.684,3.7v8.044ZM58.317,38.08V40.8a1.087,1.087,0,0,0,.571,1.087,4.529,4.529,0,1,0-.072-7.51.96.96,0,0,0-.5.906C58.335,36.241,58.317,37.165,58.317,38.08ZM46.277,15.487h6.5l-6.5-6.5Z" transform="translate(-7.08 -3.43)" fill="#fff"/>
          <path id="Trazado_206034" data-name="Trazado 206034" d="M11.757,82.382a4.953,4.953,0,0,0-.616-.127A4.33,4.33,0,0,1,7.11,77.781a4.529,4.529,0,0,1,4.366-4.421H49.759a5.254,5.254,0,0,1,2.509.571c1.64.906,3.3,1.694,4.964,2.518a1.549,1.549,0,0,1,0,2.917q-3.053,1.522-6.1,3.062Zm4.394-3.008H49.233c1.612,0,2.718-.951,4.212-1.531-.906-.48-1.712-.906-2.5-1.241a2.971,2.971,0,0,0-1.2-.281H16.15Zm-3.062-3.044c-.987.082-2.038-.308-2.718.734a1.377,1.377,0,0,0,.054,1.658c.707.906,1.7.607,2.663.643Z" transform="translate(-7.082 -10.011)" fill="#fff"/>
          <path id="Trazado_206035" data-name="Trazado 206035" d="M42.4,25.13H53.071a1.5,1.5,0,0,1,1.422,1.486,1.531,1.531,0,0,1-1.332,1.5,4.411,4.411,0,0,1-.489,0H32.209a2.464,2.464,0,0,1-1.477-.607,1.214,1.214,0,0,1-.181-1.5,1.413,1.413,0,0,1,1.359-.852H42.4Z" transform="translate(-9.272 -5.472)" fill="#fff"/>
          <path id="Trazado_206036" data-name="Trazado 206036" d="M42.41,40.1H53.081a1.486,1.486,0,0,1,1.413,1.422,1.513,1.513,0,0,1-1.341,1.558,4.891,4.891,0,0,1-.634,0H31.82a1.5,1.5,0,0,1-1.44-1.531,1.449,1.449,0,0,1,1.468-1.431h3.959Z" transform="translate(-9.273 -6.881)" fill="#fff"/>
          <path id="Trazado_206037" data-name="Trazado 206037" d="M42.41,55.059H52.782A1.486,1.486,0,0,1,54.35,57.1a1.458,1.458,0,0,1-1.3.906H31.811a1.513,1.513,0,0,1-1.431-1.54,1.458,1.458,0,0,1,1.468-1.386h4.23Z" transform="translate(-9.273 -8.288)" fill="#fff"/>
          <path id="Trazado_206038" data-name="Trazado 206038" d="M18.223,25.52c1.631-1.612,3.189-3.18,4.774-4.72a2.6,2.6,0,0,1,.906-.607,1.413,1.413,0,0,1,1.64.652,1.323,1.323,0,0,1-.1,1.7c-2,2.056-4.013,4.1-6.088,6.078-.852.815-1.5.752-2.355-.054-1-.906-1.939-1.911-2.872-2.908a1.486,1.486,0,0,1,.063-2.1,1.458,1.458,0,0,1,2.093,0C16.954,24.2,17.6,24.85,18.223,25.52Z" transform="translate(-7.705 -5.002)" fill="#fff"/>
          <path id="Trazado_206039" data-name="Trazado 206039" d="M18.214,40.49c1.631-1.612,3.2-3.18,4.783-4.72a2.564,2.564,0,0,1,.906-.607,1.422,1.422,0,0,1,1.649.643,1.323,1.323,0,0,1-.1,1.7c-2.02,2.074-4.049,4.131-6.142,6.124-.815.779-1.458.7-2.3-.091-.987-.906-1.939-1.911-2.872-2.908a1.486,1.486,0,0,1,.063-2.1,1.458,1.458,0,0,1,2.093,0C16.955,39.158,17.6,39.82,18.214,40.49Z" transform="translate(-7.706 -6.411)" fill="#fff"/>
          <path id="Trazado_206040" data-name="Trazado 206040" d="M18.279,55.547c.6-.634,1.132-1.223,1.694-1.812,1.069-1.1,2.147-2.183,3.243-3.243a1.5,1.5,0,0,1,2.1-.054,1.422,1.422,0,0,1,.127,2.038c-1.975,2.056-3.968,4.095-6.033,6.051a1.493,1.493,0,0,1-2.41,0c-.879-.788-1.939-1.92-2.863-2.917a1.477,1.477,0,0,1,.045-2.047,1.44,1.44,0,0,1,2.084,0A19.624,19.624,0,0,1,18.279,55.547Z" transform="translate(-7.707 -7.816)" fill="#fff"/>
        </g>
      </g>
    </g>
  </g>
</svg>
